<svg width="87" height="73" viewBox="0 0 87 73" fill="none" xmlns="http://www.w3.org/2000/svg">
<rect width="87" height="73" rx="11" fill="#FECE30"/>
<path d="M35.0726 21.7796C34.7319 21.462 34.2756 21.2863 33.8019 21.2903C33.3282 21.2943 32.8751 21.4776 32.5402 21.8009C32.2052 22.1241 32.0152 22.5614 32.0111 23.0185C32.007 23.4757 32.1891 23.9161 32.5182 24.2449L42.951 34.3133L32.5164 44.3818C32.3438 44.5426 32.2062 44.735 32.1115 44.9477C32.0168 45.1604 31.967 45.3892 31.9649 45.6207C31.9628 45.8522 32.0085 46.0818 32.0994 46.296C32.1902 46.5103 32.3243 46.705 32.494 46.8687C32.6636 47.0324 32.8653 47.1618 33.0873 47.2495C33.3093 47.3371 33.5472 47.3812 33.7871 47.3792C34.027 47.3772 34.264 47.3291 34.4844 47.2378C34.7048 47.1464 34.9042 47.0136 35.0708 46.847L45.5055 36.7786L55.9383 46.847C56.279 47.1646 56.7354 47.3404 57.209 47.3364C57.6827 47.3324 58.1358 47.1491 58.4708 46.8258C58.8057 46.5026 58.9957 46.0653 58.9998 45.6081C59.0039 45.151 58.8218 44.7106 58.4928 44.3818L48.0599 34.3133L58.4928 24.2449C58.8218 23.9161 59.0039 23.4757 58.9998 23.0185C58.9957 22.5614 58.8057 22.1241 58.4708 21.8009C58.1358 21.4776 57.6827 21.2943 57.209 21.2903C56.7354 21.2863 56.279 21.462 55.9383 21.7796L45.5055 31.8481L35.0726 21.7779V21.7796Z" fill="#19180A"/>
</svg>
