<svg width="28" height="28" viewBox="0 0 28 28" fill="none" xmlns="http://www.w3.org/2000/svg">
<path d="M4.07263 1.23107C3.73191 0.910421 3.27557 0.732994 2.8019 0.737005C2.32823 0.741016 1.87512 0.926143 1.54018 1.25251C1.20523 1.57888 1.01523 2.02038 1.01112 2.48192C1.007 2.94346 1.18909 3.38811 1.51817 3.72011L11.951 13.8857L1.51636 24.0513C1.34382 24.2137 1.20619 24.408 1.11151 24.6227C1.01683 24.8375 0.966996 25.0685 0.964912 25.3022C0.962828 25.5359 1.00854 25.7677 1.09937 25.9841C1.19021 26.2004 1.32435 26.3969 1.49397 26.5622C1.66359 26.7275 1.8653 26.8582 2.08732 26.9467C2.30933 27.0352 2.54722 27.0797 2.78709 27.0777C3.02696 27.0757 3.26402 27.0271 3.48443 26.9349C3.70483 26.8426 3.90418 26.7085 4.07083 26.5404L14.5055 16.3748L24.9383 26.5404C25.279 26.861 25.7354 27.0385 26.209 27.0344C26.6827 27.0304 27.1358 26.8453 27.4708 26.5189C27.8057 26.1926 27.9957 25.7511 27.9998 25.2895C28.0039 24.828 27.8218 24.3833 27.4928 24.0513L17.0599 13.8857L27.4928 3.72011C27.8218 3.38811 28.0039 2.94346 27.9998 2.48192C27.9957 2.02038 27.8057 1.57888 27.4708 1.25251C27.1358 0.926143 26.6827 0.741016 26.209 0.737005C25.7354 0.732994 25.279 0.910421 24.9383 1.23107L14.5055 11.3967L4.07263 1.22931V1.23107Z" fill="#FECE30"/>
</svg>
