<svg width="99" height="99" viewBox="0 0 99 99" fill="none" xmlns="http://www.w3.org/2000/svg">
<path d="M13.73 42.2327C12.7373 42.2537 11.793 42.6656 11.1022 43.3788C10.4113 44.092 10.0297 45.0489 10.0403 46.0418C10.0508 47.0347 10.4526 47.9833 11.1584 48.6817C11.8643 49.3801 12.8171 49.7718 13.81 49.7718C14.803 49.7718 15.7558 49.3801 16.4617 48.6817C17.1675 47.9833 17.5693 47.0347 17.5798 46.0418C17.5904 45.0489 17.2088 44.092 16.5179 43.3788C15.8271 42.6656 14.8828 42.2537 13.89 42.2327L13.73 42.2327Z" fill="#FEEFE6"/>
<path d="M50.7 55.1427C52.2267 56.7957 53.989 58.2143 55.93 59.3527C57.6263 60.3435 59.436 61.1258 61.32 61.6827C63.2673 62.2784 65.2847 62.6146 67.32 62.6827L67.32 62.5727L67.5 62.4627C67.2721 60.4409 66.7813 58.4574 66.04 56.5627C65.3417 54.7262 64.4251 52.9803 63.31 51.3627C62.0311 49.5081 60.4843 47.8534 58.72 46.4527C56.9615 45.0941 55.0562 43.9369 53.04 43.0027C51.3276 42.1926 49.5715 41.4782 47.78 40.8627C46.16 40.3027 44.7799 39.8627 43.9799 39.6727C43.1799 39.4827 42.76 39.3227 42.56 39.2927L42.26 39.0027L42.26 39.4127L42.2 39.4927L42.29 39.5727C42.42 40.0127 43.11 42.0527 44.24 44.6627C44.9854 46.4013 45.8267 48.0972 46.76 49.7427C47.8696 51.6828 49.191 53.4939 50.7 55.1427Z" fill="#FEEFE6"/>
<path d="M25.98 36.0027C25.2173 36.6223 24.7275 37.5158 24.6154 38.4921C24.5033 39.4683 24.7778 40.4497 25.3802 41.226C25.9826 42.0024 26.865 42.5121 27.8385 42.646C28.812 42.7799 29.7993 42.5273 30.5889 41.9424C31.3785 41.3575 31.9078 40.4867 32.0634 39.5164C32.219 38.5462 31.9886 37.5535 31.4215 36.751C30.8543 35.9485 29.9956 35.4 29.0291 35.2227C28.0625 35.0454 27.065 35.2536 26.25 35.8027C26.16 35.8727 26.04 35.9327 25.98 36.0027Z" fill="#FEEFE6"/>
<path d="M82.6301 48.2626C80.721 48.6243 78.7831 48.8117 76.8401 48.8226C74.8285 48.8427 72.8195 48.6719 70.8401 48.3126C71.9006 50.0337 72.7946 51.8519 73.5101 53.7426C74.5006 56.3128 75.1463 59.0029 75.4301 61.7426C75.4301 61.976 75.4301 62.206 75.4301 62.4326C75.4301 62.4326 75.4301 62.5126 75.4301 62.5526C79.2237 57.9987 82.5943 53.1085 85.5001 47.9426C84.5711 48.2241 83.5983 48.3325 82.6301 48.2626Z" fill="#FEEFE6"/>
<path d="M42.7701 28.2926C42.7622 27.4198 42.4525 26.5766 41.8935 25.9062C41.3345 25.2357 40.5608 24.7794 39.7036 24.6147C38.8464 24.45 37.9586 24.587 37.191 25.0024C36.4233 25.4179 35.8231 26.0863 35.4923 26.894C35.1614 27.7018 35.1203 28.5991 35.3759 29.4337C35.6315 30.2683 36.1681 30.9888 36.8946 31.4727C37.621 31.9566 38.4926 32.1742 39.3612 32.0885C40.2299 32.0028 41.0421 31.6192 41.6601 31.0026C41.8387 30.8292 41.9995 30.6382 42.1401 30.4326C42.56 29.7987 42.7795 29.053 42.7701 28.2926Z" fill="#FEEFE6"/>
<path d="M59.3799 33.7027C60.9996 35.2333 62.7877 36.5752 64.7099 37.7027C66.6557 38.836 68.7585 39.6751 70.9499 40.1927C72.8596 40.6457 74.8174 40.8639 76.7799 40.8427C78.806 40.8346 80.8225 40.5657 82.7799 40.0427L83.2699 40.2927L82.9699 39.7627C82.1668 37.8928 81.1248 36.1348 79.8699 34.5327C78.6628 32.9841 77.2727 31.5872 75.7299 30.3727C73.9629 28.9766 71.998 27.8509 69.8999 27.0327C67.8085 26.2395 65.635 25.6827 63.4199 25.3727C61.5439 25.1022 59.6543 24.9353 57.7599 24.8727C55.6799 24.8027 53.0599 24.8227 52.3399 24.8727L52.0399 24.8327L52.0399 25.0727L51.9099 25.2027L52.1299 25.3027C52.4599 25.8227 53.8299 27.6527 55.4699 29.5827C56.6985 31.0251 58.0037 32.4004 59.3799 33.7027Z" fill="#FEEFE6"/>
<path d="M48.1699 3.76269C47.1708 3.7627 46.2124 3.3672 45.5041 2.66263C44.7958 1.95806 44.3952 1.00173 44.3899 0.00268555L51.9499 0.00268555C51.9446 1.00173 51.544 1.95806 50.8357 2.66263C50.1274 3.3672 49.169 3.7627 48.1699 3.76269Z" fill="#FEEFE6"/>
<path d="M97.64 8.76268C97.0821 8.0407 96.4059 7.41854 95.64 6.92268C92.8076 4.01935 89.4565 1.67221 85.76 0.00267863C85.7866 -0.000892875 85.8135 -0.000892875 85.84 0.00267863L98.04 0.00267863C98.04 2.94268 97.9 5.86268 97.64 8.76268Z" fill="#FEEFE6"/>
<path d="M49.4599 15.9327C49.5661 15.586 49.62 15.2253 49.6199 14.8627C49.6239 13.9626 49.3066 13.0906 48.725 12.4036C48.1434 11.7166 47.3358 11.2597 46.4474 11.1151C45.559 10.9704 44.6481 11.1475 43.8787 11.6145C43.1092 12.0816 42.5317 12.8078 42.2499 13.6627L42.1599 13.9527C41.8947 14.9207 42.0249 15.9545 42.5219 16.8265C43.0188 17.6986 43.8419 18.3375 44.8099 18.6027C45.7779 18.8679 46.8117 18.7377 47.6837 18.2407C48.5558 17.7438 49.1947 16.9207 49.4599 15.9527L49.4599 15.9327Z" fill="#FEEFE6"/>
<path d="M95.4499 20.3927C93.0978 21.9453 90.5395 23.1605 87.8499 24.0027C85.9212 24.6189 83.9394 25.0541 81.9299 25.3027C85.3871 28.3511 88.1552 32.1009 90.0499 36.3027L90.1099 36.4127C90.3019 36.7344 90.4722 37.0684 90.6199 37.4127C92.9475 31.7899 94.742 25.961 95.9799 20.0027L95.7999 20.1327L95.4499 20.3927Z" fill="#FEEFE6"/>
<path d="M67.22 70.6127C64.4471 70.5349 61.6966 70.0911 59.04 69.2927C57.1142 68.7005 55.2465 67.934 53.46 67.0027C53.9325 68.8522 54.2437 70.7393 54.39 72.6427L54.39 72.9527C54.39 73.6727 54.46 74.3927 54.46 75.1027C54.4695 77.1479 54.2684 79.1887 53.86 81.1927C53.8087 81.4574 53.7385 81.718 53.65 81.9727C58.7871 78.6272 63.6043 74.8144 68.04 70.5827C67.7533 70.6027 67.48 70.6127 67.22 70.6127Z" fill="#FEEFE6"/>
<path d="M31.3001 79.8027C31.2094 81.8253 30.9247 83.8345 30.4501 85.8027C29.8041 88.519 28.795 91.1359 27.4501 93.5827L27.2001 94.0127C27.1599 94.0671 27.1232 94.1238 27.0901 94.1827C32.9889 92.4901 38.7144 90.2434 44.1901 87.4727C43.9301 87.4127 43.6701 87.3527 43.4201 87.2727C40.8107 86.3892 38.3293 85.1654 36.0401 83.6327C34.3432 82.508 32.7561 81.2256 31.3001 79.8027Z" fill="#FEEFE6"/>
<path d="M3.82004 48.1727C3.82004 47.1702 3.42179 46.2087 2.7129 45.4998C2.00402 44.7909 1.04256 44.3927 0.0400391 44.3927H0.0400391L0.0400391 52.0027C0.540671 52.0027 1.03632 51.9033 1.49823 51.7103C1.96013 51.5172 2.37907 51.2343 2.73074 50.8779C3.0824 50.5216 3.35979 50.099 3.54678 49.6346C3.73378 49.1702 3.82666 48.6733 3.82004 48.1727Z" fill="#FEEFE6"/>
<path d="M15.9 85.5027C17.166 87.0693 18.6241 88.4703 20.24 89.6727L20.33 90.0627L20.57 89.6427C21.5377 87.8672 22.2641 85.9704 22.73 84.0027C23.1981 82.0952 23.4266 80.1367 23.41 78.1727C23.41 77.6427 23.41 77.1127 23.35 76.5927C23.2088 74.8737 22.8733 73.1762 22.35 71.5327C21.665 69.3995 20.7426 67.35 19.6 65.4227C18.6425 63.7909 17.5977 62.2119 16.47 60.6927C14.96 58.6927 13.47 56.9027 13.05 56.4627L13.05 56.3727L12.94 56.3727L12.64 56.2727L12.7 56.5427C12.63 56.7427 12.52 57.1427 12.32 57.9627C12.12 58.7827 11.77 60.1627 11.45 61.8427C11.0841 63.7035 10.8204 65.583 10.66 67.4727C10.4545 69.7011 10.5048 71.9457 10.81 74.1627C11.1396 76.3892 11.7932 78.5555 12.75 80.5927C13.6018 82.3484 14.6592 83.9966 15.9 85.5027Z" fill="#FEEFE6"/>
<path d="M14.04 94.8727C12.4713 93.5524 11.0284 92.0895 9.73 90.5027C8.46884 88.9418 7.35413 87.2681 6.4 85.5027C5.71574 87.4117 4.85536 89.253 3.83 91.0027C2.81319 92.7043 1.64513 94.3108 0.34 95.8027C0.24 96.0027 0.12 96.2027 1.48859e-08 96.3927L1.70867e-08 98.0027C5.36016 98.0038 10.7114 97.5657 16 96.6927C15.2467 96.2034 14.5837 95.5877 14.04 94.8727Z" fill="#FEEFE6"/>
<path d="M32.2 67.6427C33.1738 69.6734 34.4407 71.5501 35.96 73.2127C37.2895 74.6501 38.7869 75.9225 40.42 77.0027C42.1056 78.1461 43.9391 79.0544 45.87 79.7027L45.87 79.6027L46.07 79.6027C46.4553 77.6275 46.5797 75.6103 46.44 73.6027L46.44 73.3627C46.3024 71.4845 45.9466 69.6287 45.38 67.8327C44.6978 65.6982 43.7037 63.6764 42.43 61.8327C41.1455 60.0052 39.6595 58.3279 38 56.8327C36.6007 55.5557 35.1318 54.3572 33.6 53.2427C32.14 52.1727 29.8 50.5827 29.1 50.2427L29.04 49.8927L28.9 50.0427L28.71 50.0927L28.83 50.2927C28.83 50.9627 28.95 53.0827 28.96 53.1827C29.02 54.0127 29.1 54.8527 29.19 55.6927C29.3731 57.5765 29.6569 59.4492 30.04 61.3027C30.5241 63.4892 31.2485 65.6154 32.2 67.6427Z" fill="#FEEFE6"/>
<path d="M57.04 8.43271L57.16 8.72271L57.16 8.83271L57.27 8.83271C57.73 9.22271 59.59 10.5727 61.73 11.9227C63.3463 12.9373 65.0153 13.8653 66.73 14.7027C68.7164 15.7029 70.8097 16.4745 72.97 17.0027C75.1657 17.5042 77.4228 17.6828 79.67 17.5327C81.6316 17.4004 83.5694 17.0276 85.44 16.4227C87.3815 15.8115 89.2341 14.9474 90.95 13.8527L90.88 13.7527L90.95 13.8527L91.35 13.5827L90.94 13.5127C89.6288 11.9922 88.1263 10.6477 86.47 9.51271C84.8618 8.3885 83.1223 7.465 81.29 6.76271C79.1876 5.95425 76.9769 5.46223 74.73 5.30271C72.4948 5.15706 70.2501 5.26778 68.04 5.63271C66.1693 5.93012 64.3165 6.33073 62.49 6.83271C60.84 7.28271 59.49 7.71271 58.68 7.98271C57.87 8.25271 57.49 8.38271 57.3 8.47271L57.04 8.43271Z" fill="#FEEFE6"/>
<path d="M24.5699 5.10269C17.3199 5.10269 11.4299 0.00268555 11.4299 0.00268555L37.6899 0.00268555C37.6899 0.00268555 31.8299 5.10269 24.5699 5.10269Z" fill="#FEEFE6"/>
<path d="M0.0400391 5.10269L0.0400391 0.00268555L5.14004 0.00268555C5.1374 1.35448 4.59923 2.65015 3.64336 3.60601C2.6875 4.56187 1.39183 5.10004 0.0400391 5.10269H0.0400391Z" fill="#FEEFE6"/>
<path d="M5.10004 24.5727C5.10004 17.3227 0.0400391 11.4327 0.0400391 11.4327L0.0400391 37.7127C0.0400391 37.7127 5.10004 31.8327 5.10004 24.5727Z" fill="#FEEFE6"/>
<path d="M26.67 26.6726C26.67 26.6726 26.12 18.9026 20.98 13.7626C15.84 8.62264 8.04004 8.08264 8.04004 8.08264C8.04004 8.08264 8.59004 15.8526 13.73 20.9826C18.87 26.1126 26.67 26.6726 26.67 26.6726Z" fill="#FEEFE6"/>
</svg>
