<svg width="99" height="99" viewBox="0 0 99 99" fill="none" xmlns="http://www.w3.org/2000/svg">
<path d="M55.77 13.73C55.7489 12.7373 55.3371 11.793 54.6239 11.1022C53.9107 10.4113 52.9537 10.0297 51.9609 10.0403C50.968 10.0508 50.0193 10.4526 49.321 11.1584C48.6226 11.8643 48.2309 12.8171 48.2309 13.81C48.2309 14.803 48.6226 15.7558 49.321 16.4617C50.0193 17.1675 50.968 17.5693 51.9609 17.5798C52.9537 17.5904 53.9107 17.2088 54.6239 16.5179C55.3371 15.8271 55.7489 14.8828 55.77 13.89L55.77 13.73Z" fill="#FEEFE6"/>
<path d="M42.86 50.7C41.207 52.2267 39.7884 53.989 38.65 55.9299C37.6592 57.6263 36.8769 59.436 36.32 61.3199C35.7243 63.2673 35.3881 65.2847 35.32 67.3199L35.43 67.3199L35.54 67.4999C37.5618 67.2721 39.5452 66.7813 41.44 66.04C43.2765 65.3417 45.0224 64.4251 46.64 63.31C48.4946 62.0311 50.1493 60.4843 51.55 58.72C52.9086 56.9615 54.0658 55.0562 55 53.04C55.8101 51.3276 56.5245 49.5715 57.14 47.78C57.7 46.16 58.14 44.7799 58.33 43.9799C58.52 43.1799 58.68 42.76 58.71 42.56L59 42.26L58.59 42.26L58.51 42.2L58.43 42.29C57.99 42.42 55.95 43.11 53.34 44.24C51.6014 44.9854 49.9055 45.8267 48.26 46.76C46.3199 47.8696 44.5088 49.191 42.86 50.7Z" fill="#FEEFE6"/>
<path d="M62.0001 25.98C61.3805 25.2173 60.487 24.7275 59.5107 24.6154C58.5345 24.5033 57.5531 24.7778 56.7768 25.3802C56.0004 25.9826 55.4907 26.865 55.3568 27.8385C55.223 28.812 55.4755 29.7993 56.0604 30.5889C56.6453 31.3785 57.5161 31.9078 58.4864 32.0634C59.4566 32.219 60.4493 31.9886 61.2518 31.4215C62.0543 30.8543 62.6029 29.9956 62.7801 29.0291C62.9574 28.0625 62.7492 27.065 62.2001 26.25C62.1301 26.16 62.0701 26.04 62.0001 25.98Z" fill="#FEEFE6"/>
<path d="M49.7401 82.6301C49.3784 80.721 49.1909 78.7831 49.1801 76.8401C49.16 74.8285 49.3308 72.8195 49.6901 70.8401C47.969 71.9006 46.1508 72.7946 44.2601 73.5101C41.6899 74.5006 38.9998 75.1463 36.2601 75.4301C36.0267 75.4301 35.7967 75.4301 35.5701 75.4301C35.5701 75.4301 35.4901 75.4301 35.4501 75.4301C40.004 79.2237 44.8942 82.5943 50.0601 85.5001C49.7786 84.5711 49.6702 83.5983 49.7401 82.6301Z" fill="#FEEFE6"/>
<path d="M69.7102 42.7701C70.583 42.7622 71.4262 42.4525 72.0966 41.8935C72.7671 41.3345 73.2234 40.5608 73.3881 39.7036C73.5529 38.8464 73.4158 37.9586 73.0004 37.191C72.5849 36.4233 71.9165 35.8231 71.1088 35.4923C70.301 35.1614 69.4037 35.1203 68.5691 35.3759C67.7345 35.6315 67.0141 36.1681 66.5301 36.8946C66.0462 37.621 65.8286 38.4926 65.9143 39.3612C66 40.2299 66.3837 41.0421 67.0002 41.6601C67.1736 41.8387 67.3646 41.9995 67.5702 42.1401C68.2041 42.56 68.9498 42.7795 69.7102 42.7701Z" fill="#FEEFE6"/>
<path d="M64.3 59.3799C62.7694 60.9996 61.4275 62.7877 60.3 64.7099C59.1667 66.6557 58.3276 68.7585 57.81 70.9499C57.357 72.8596 57.1387 74.8174 57.16 76.7799C57.1681 78.806 57.437 80.8225 57.96 82.7799L57.71 83.2699L58.24 82.9699C60.1099 82.1668 61.8679 81.1248 63.47 79.8699C65.0186 78.6628 66.4155 77.2727 67.63 75.7299C69.0261 73.9629 70.1517 71.998 70.97 69.8999C71.7632 67.8085 72.3199 65.635 72.63 63.4199C72.9005 61.5439 73.0674 59.6543 73.13 57.7599C73.2 55.6799 73.18 53.0599 73.13 52.3399L73.17 52.0399L72.93 52.0399L72.8 51.9099L72.7 52.1299C72.18 52.4599 70.35 53.8299 68.42 55.4699C66.9776 56.6985 65.6023 58.0037 64.3 59.3799Z" fill="#FEEFE6"/>
<path d="M94.24 48.1699C94.24 47.1708 94.6355 46.2124 95.3401 45.5041C96.0446 44.7958 97.001 44.3952 98 44.3899L98 51.9499C97.001 51.9446 96.0446 51.544 95.3401 50.8357C94.6355 50.1274 94.24 49.169 94.24 48.1699Z" fill="#FEEFE6"/>
<path d="M89.2403 97.64C89.9622 97.0821 90.5844 96.4059 91.0803 95.64C93.9836 92.8076 96.3307 89.4565 98.0003 85.76C98.0038 85.7866 98.0038 85.8135 98.0003 85.84L98.0003 98.04C95.0603 98.04 92.1403 97.9 89.2403 97.64Z" fill="#FEEFE6"/>
<path d="M82.0702 49.4599C82.417 49.5661 82.7776 49.62 83.1402 49.6199C84.0403 49.6239 84.9123 49.3066 85.5993 48.725C86.2863 48.1434 86.7432 47.3358 86.8879 46.4474C87.0325 45.559 86.8554 44.6481 86.3884 43.8787C85.9214 43.1092 85.1951 42.5317 84.3402 42.2499L84.0502 42.1599C83.0822 41.8947 82.0484 42.0249 81.1764 42.5219C80.3044 43.0188 79.6654 43.8419 79.4002 44.8099C79.135 45.7779 79.2652 46.8117 79.7622 47.6837C80.2592 48.5558 81.0822 49.1947 82.0502 49.4599L82.0702 49.4599Z" fill="#FEEFE6"/>
<path d="M77.61 95.4499C76.0574 93.0978 74.8422 90.5395 74 87.8499C73.3838 85.9212 72.9486 83.9394 72.7 81.9299C69.6516 85.3871 65.9017 88.1552 61.7 90.0499L61.59 90.1099C61.2683 90.3019 60.9342 90.4722 60.59 90.6199C66.2128 92.9475 72.0417 94.742 78 95.9799L77.87 95.7999L77.61 95.4499Z" fill="#FEEFE6"/>
<path d="M27.39 67.22C27.4678 64.4471 27.9116 61.6966 28.71 59.04C29.3022 57.1142 30.0687 55.2465 31 53.46C29.1504 53.9325 27.2634 54.2437 25.36 54.39L25.05 54.39C24.33 54.39 23.61 54.46 22.9 54.46C20.8548 54.4695 18.814 54.2684 16.81 53.86C16.5453 53.8087 16.2846 53.7385 16.03 53.65C19.3754 58.7871 23.1883 63.6043 27.42 68.04C27.4 67.7533 27.39 67.48 27.39 67.22Z" fill="#FEEFE6"/>
<path d="M18.2002 31.3001C16.1776 31.2094 14.1684 30.9247 12.2002 30.4501C9.48388 29.8041 6.867 28.795 4.4202 27.4501L3.9902 27.2001C3.93586 27.1599 3.87909 27.1232 3.8202 27.0901C5.51283 32.9889 7.75949 38.7144 10.5302 44.1901C10.5902 43.9301 10.6502 43.6701 10.7302 43.4201C11.6137 40.8107 12.8376 38.3293 14.3702 36.0401C15.495 34.3432 16.7773 32.7561 18.2002 31.3001Z" fill="#FEEFE6"/>
<path d="M49.8304 3.82004C50.8329 3.82004 51.7943 3.42179 52.5032 2.7129C53.2121 2.00402 53.6104 1.04256 53.6104 0.0400391V0.0400391L46.0004 0.0400387C46.0003 0.540671 46.0997 1.03632 46.2928 1.49822C46.4859 1.96013 46.7688 2.37907 47.1251 2.73074C47.4814 3.0824 47.904 3.35979 48.3684 3.54678C48.8328 3.73378 49.3298 3.82666 49.8304 3.82004Z" fill="#FEEFE6"/>
<path d="M12.5 15.9C10.9334 17.166 9.53236 18.6241 8.32998 20.24L7.93998 20.33L8.35998 20.57C10.1355 21.5377 12.0323 22.2641 14 22.73C15.9075 23.1981 17.8659 23.4266 19.83 23.41C20.36 23.41 20.89 23.41 21.41 23.35C23.129 23.2088 24.8265 22.8733 26.47 22.35C28.6032 21.665 30.6527 20.7426 32.58 19.6C34.2118 18.6425 35.7907 17.5977 37.31 16.47C39.31 14.96 41.1 13.47 41.54 13.05L41.63 13.05L41.63 12.94L41.73 12.64L41.46 12.7C41.26 12.63 40.86 12.52 40.04 12.32C39.22 12.12 37.84 11.77 36.16 11.45C34.2992 11.0841 32.4197 10.8204 30.53 10.66C28.3016 10.4545 26.0569 10.5048 23.84 10.81C21.6135 11.1396 19.4472 11.7932 17.41 12.75C15.6543 13.6018 14.0061 14.6592 12.5 15.9Z" fill="#FEEFE6"/>
<path d="M3.13 14.04C4.45024 12.4713 5.91318 11.0284 7.5 9.73C9.06089 8.46884 10.7346 7.35413 12.5 6.4C10.5909 5.71574 8.74967 4.85536 7 3.83C5.29843 2.81319 3.69193 1.64513 2.2 0.34C2 0.24 1.8 0.119999 1.61 -5.19868e-07L0 -5.96726e-07C-0.00114081 5.36016 0.436989 10.7114 1.31 16C1.79929 15.2467 2.415 14.5837 3.13 14.04Z" fill="#FEEFE6"/>
<path d="M30.3604 32.2C28.3296 33.1738 26.4529 34.4407 24.7904 35.96C23.353 37.2895 22.0805 38.7869 21.0004 40.42C19.857 42.1055 18.9486 43.9391 18.3004 45.87L18.4004 45.87L18.4004 46.07C20.3756 46.4553 22.3928 46.5796 24.4004 46.44L24.6403 46.44C26.5186 46.3024 28.3744 45.9466 30.1703 45.38C32.3048 44.6978 34.3267 43.7037 36.1703 42.43C37.9979 41.1455 39.6751 39.6595 41.1703 38C42.4473 36.6007 43.6458 35.1318 44.7603 33.6C45.8303 32.14 47.4203 29.8 47.7603 29.1L48.1104 29.04L47.9604 28.9L47.9104 28.71L47.7104 28.83C47.0403 28.83 44.9204 28.95 44.8204 28.96C43.9904 29.02 43.1504 29.1 42.3104 29.19C40.4265 29.3731 38.5539 29.6569 36.7004 30.04C34.5139 30.5241 32.3876 31.2485 30.3604 32.2Z" fill="#FEEFE6"/>
<path d="M89.5701 57.04L89.2801 57.16L89.1701 57.16L89.1701 57.27C88.7801 57.73 87.4301 59.59 86.0801 61.73C85.0655 63.3463 84.1375 65.0153 83.3001 66.73C82.2999 68.7164 81.5283 70.8097 81.0001 72.97C80.4986 75.1657 80.32 77.4228 80.4701 79.67C80.6024 81.6316 80.9752 83.5694 81.5801 85.44C82.1913 87.3815 83.0554 89.2341 84.1501 90.95L84.2501 90.88L84.1501 90.95L84.4201 91.35L84.4901 90.94C86.0106 89.6288 87.3551 88.1263 88.4901 86.47C89.6143 84.8618 90.5378 83.1223 91.2401 81.29C92.0486 79.1876 92.5406 76.9769 92.7001 74.73C92.8457 72.4948 92.735 70.2501 92.3701 68.04C92.0727 66.1693 91.6721 64.3165 91.1701 62.49C90.7201 60.84 90.2901 59.49 90.0201 58.68C89.7501 57.87 89.6201 57.49 89.5301 57.3L89.5701 57.04Z" fill="#FEEFE6"/>
<path d="M92.9 24.5699C92.9 17.3199 98 11.4299 98 11.4299L98 37.6899C98 37.6899 92.9 31.8299 92.9 24.5699Z" fill="#FEEFE6"/>
<path d="M92.9 0.0400388L98 0.0400391L98 5.14004C96.6482 5.1374 95.3525 4.59923 94.3967 3.64336C93.4408 2.6875 92.9026 1.39183 92.9 0.0400388V0.0400388Z" fill="#FEEFE6"/>
<path d="M73.4303 5.10004C80.6803 5.10004 86.5703 0.0400391 86.5703 0.0400391L60.2903 0.0400378C60.2903 0.0400378 66.1703 5.10004 73.4303 5.10004Z" fill="#FEEFE6"/>
<path d="M71.3304 26.67C71.3304 26.67 79.1004 26.12 84.2404 20.98C89.3804 15.84 89.9204 8.04004 89.9204 8.04004C89.9204 8.04004 82.1504 8.59004 77.0204 13.73C71.8904 18.87 71.3304 26.67 71.3304 26.67Z" fill="#FEEFE6"/>
</svg>
