<svg width="428" height="120" viewBox="0 0 428 120" fill="none" xmlns="http://www.w3.org/2000/svg">
<rect opacity="0.2" width="428" height="120" rx="5" fill="white"/>
<path d="M57.7624 59C58.0237 59 58.229 59.0747 58.3784 59.224C58.5277 59.4107 58.6024 59.728 58.6024 60.176C58.6024 60.6613 58.5277 60.9787 58.3784 61.128C58.229 61.2773 58.0237 61.352 57.7624 61.352H32.0023C31.741 61.352 31.5357 61.2587 31.3863 61.072C31.237 60.8853 31.1623 60.5867 31.1623 60.176C31.1623 59.6907 31.237 59.3733 31.3863 59.224C31.5357 59.0747 31.741 59 32.0023 59H57.7624ZM102.092 59C102.353 59 102.559 59.0747 102.708 59.224C102.857 59.4107 102.932 59.728 102.932 60.176C102.932 60.6613 102.857 60.9787 102.708 61.128C102.559 61.2773 102.353 61.352 102.092 61.352H76.332C76.0707 61.352 75.8654 61.2587 75.716 61.072C75.5667 60.8853 75.492 60.5867 75.492 60.176C75.492 59.6907 75.5667 59.3733 75.716 59.224C75.8654 59.0747 76.0707 59 76.332 59H102.092ZM151.574 54.52C151.686 52.9147 151.779 50.488 151.854 47.24C151.928 43.9547 151.966 39.2693 151.966 33.184C151.966 32.3627 151.91 31.7467 151.798 31.336C151.723 30.9253 151.499 30.72 151.126 30.72C150.902 30.72 150.659 30.9067 150.398 31.28C150.136 31.616 149.875 32.1387 149.614 32.848C149.24 34.0053 148.83 35.4987 148.382 37.328C147.934 39.1573 147.486 41.1547 147.038 43.32C146.59 45.448 146.123 47.6693 145.638 49.984C145.19 52.2987 144.779 54.5013 144.406 56.592C144.219 57.6373 143.827 58.2907 143.23 58.552C142.67 58.8133 141.438 58.944 139.534 58.944C138.6 58.944 137.872 58.9253 137.35 58.888C136.827 58.8133 136.416 58.7013 136.118 58.552C135.856 58.3653 135.651 58.1227 135.502 57.824C135.39 57.5253 135.259 57.1147 135.11 56.592C134.662 54.9867 134.12 53.0453 133.486 50.768C132.851 48.4533 132.179 46.1387 131.47 43.824C130.76 41.5093 130.051 39.3253 129.342 37.272C128.632 35.1813 128.016 33.576 127.494 32.456C127.27 31.9707 127.046 31.5973 126.822 31.336C126.635 31.0373 126.411 30.888 126.15 30.888C125.776 30.888 125.534 31.168 125.422 31.728C125.347 32.288 125.31 32.9227 125.31 33.632C125.31 36.1707 125.44 38.6347 125.702 41.024C125.963 43.4133 126.336 45.6347 126.822 47.688C127.307 49.704 127.923 51.5147 128.67 53.12C129.454 54.688 130.331 55.9387 131.302 56.872C131.862 57.3947 132.216 57.7493 132.366 57.936C132.515 58.1227 132.59 58.3093 132.59 58.496C132.59 58.5707 132.534 58.6827 132.422 58.832C132.347 58.944 132.216 59 132.03 59C131.47 59 130.704 58.9813 129.734 58.944C128.763 58.9067 127.456 58.888 125.814 58.888C124.694 58.888 123.704 58.9067 122.846 58.944C121.987 58.9813 121.315 59 120.83 59C120.68 59 120.568 58.9627 120.494 58.888C120.419 58.8133 120.382 58.7013 120.382 58.552C120.382 58.3653 120.438 58.216 120.55 58.104C120.662 57.9547 120.848 57.6933 121.11 57.32C121.632 56.6107 122.099 55.416 122.51 53.736C122.958 52.0187 123.312 49.928 123.574 47.464C123.872 45 124.096 42.1813 124.246 39.008C124.395 35.8347 124.47 32.4187 124.47 28.76C124.47 27.6773 124.339 26.7253 124.078 25.904C123.854 25.0453 123.275 24.616 122.342 24.616C122.08 24.616 121.8 24.6533 121.502 24.728C121.24 24.7653 121.016 24.784 120.83 24.784C120.68 24.784 120.568 24.728 120.494 24.616C120.382 24.4667 120.326 24.336 120.326 24.224C120.326 24.0747 120.382 23.9627 120.494 23.888C120.568 23.776 120.68 23.72 120.83 23.72C122.286 23.72 123.835 23.7573 125.478 23.832C127.158 23.9067 128.651 23.944 129.958 23.944C131.115 23.944 132.104 23.944 132.926 23.944C133.747 23.9067 134.494 23.8693 135.166 23.832C135.875 23.7947 136.547 23.776 137.182 23.776C137.854 23.7387 138.6 23.72 139.422 23.72C139.944 23.72 140.318 23.832 140.542 24.056C140.803 24.28 140.971 24.7467 141.046 25.456C141.12 26.24 141.232 27.2107 141.382 28.368C141.531 29.488 141.699 30.664 141.886 31.896C142.072 33.0907 142.259 34.2667 142.446 35.424C142.67 36.5813 142.875 37.5707 143.062 38.392C143.435 39.96 143.771 41.0613 144.07 41.696C144.368 42.2933 144.723 42.592 145.134 42.592C145.582 42.592 145.918 42.312 146.142 41.752C146.403 41.192 146.664 40.4453 146.926 39.512C147.224 38.3547 147.504 37.2533 147.766 36.208C148.064 35.1627 148.326 34.0987 148.55 33.016C148.811 31.896 149.054 30.72 149.278 29.488C149.539 28.2187 149.782 26.7813 150.006 25.176C150.08 24.6907 150.23 24.336 150.454 24.112C150.678 23.8507 151.163 23.72 151.91 23.72C153.03 23.72 154.075 23.7573 155.046 23.832C156.054 23.9067 157.472 23.944 159.302 23.944C160.832 23.944 162.382 23.9067 163.95 23.832C165.518 23.7573 166.974 23.72 168.318 23.72C168.467 23.72 168.579 23.776 168.654 23.888C168.766 23.9627 168.822 24.0747 168.822 24.224C168.822 24.336 168.766 24.4667 168.654 24.616C168.579 24.728 168.467 24.784 168.318 24.784C168.131 24.784 167.888 24.7653 167.59 24.728C167.328 24.6533 167.067 24.616 166.806 24.616C166.096 24.616 165.648 24.9893 165.462 25.736C165.312 26.4453 165.219 27.248 165.182 28.144C165.07 29.7867 164.995 31.5787 164.958 33.52C164.92 35.4613 164.902 37.4027 164.902 39.344C164.902 42.144 164.939 44.888 165.014 47.576C165.088 50.264 165.144 52.5787 165.182 54.52C165.219 55.8267 165.35 56.76 165.574 57.32C165.798 57.8427 166.264 58.104 166.974 58.104C167.123 58.104 167.328 58.0853 167.59 58.048C167.851 58.0107 168.094 57.992 168.318 57.992C168.467 57.992 168.579 58.048 168.654 58.16C168.766 58.272 168.822 58.384 168.822 58.496C168.822 58.6453 168.766 58.776 168.654 58.888C168.579 58.9627 168.467 59 168.318 59C167.272 59 165.76 58.9813 163.782 58.944C161.84 58.9067 159.638 58.888 157.174 58.888C155.008 58.888 153.179 58.9067 151.686 58.944C150.23 58.9813 148.979 59 147.934 59C147.747 59 147.616 58.9627 147.542 58.888C147.467 58.776 147.43 58.6453 147.43 58.496C147.43 58.3467 147.467 58.216 147.542 58.104C147.616 57.992 147.747 57.936 147.934 57.936C148.232 57.936 148.568 57.9733 148.942 58.048C149.315 58.0853 149.595 58.104 149.782 58.104C150.491 58.104 150.939 57.8427 151.126 57.32C151.35 56.76 151.499 55.8267 151.574 54.52ZM212.79 59C213.052 59 213.257 59.0747 213.406 59.224C213.556 59.4107 213.63 59.728 213.63 60.176C213.63 60.6613 213.556 60.9787 213.406 61.128C213.257 61.2773 213.052 61.352 212.79 61.352H187.03C186.769 61.352 186.564 61.2587 186.414 61.072C186.265 60.8853 186.19 60.5867 186.19 60.176C186.19 59.6907 186.265 59.3733 186.414 59.224C186.564 59.0747 186.769 59 187.03 59H212.79ZM257.12 59C257.382 59 257.587 59.0747 257.736 59.224C257.886 59.4107 257.96 59.728 257.96 60.176C257.96 60.6613 257.886 60.9787 257.736 61.128C257.587 61.2773 257.382 61.352 257.12 61.352H231.36C231.099 61.352 230.894 61.2587 230.744 61.072C230.595 60.8853 230.52 60.5867 230.52 60.176C230.52 59.6907 230.595 59.3733 230.744 59.224C230.894 59.0747 231.099 59 231.36 59H257.12ZM301.002 24.896C300.666 24.896 300.237 24.8587 299.714 24.784C299.229 24.672 298.669 24.616 298.034 24.616C296.242 24.616 295.103 25.2693 294.618 26.576C294.17 27.8827 293.89 29.3387 293.778 30.944C293.666 32.736 293.591 34.7147 293.554 36.88C293.517 39.008 293.498 41.136 293.498 43.264C293.535 45.3547 293.573 47.3893 293.61 49.368C293.685 51.3093 293.741 53.0267 293.778 54.52C293.815 55.8267 293.927 56.76 294.114 57.32C294.338 57.8427 294.749 58.104 295.346 58.104C296.279 58.104 296.914 56.928 297.25 54.576C297.586 52.224 297.997 49.648 298.482 46.848C299.005 44.048 299.807 41.472 300.89 39.12C302.01 36.768 303.802 35.592 306.266 35.592C306.602 35.592 306.826 35.704 306.938 35.928C307.087 36.1147 307.162 36.3387 307.162 36.6C307.162 37.5333 307.106 39.0827 306.994 41.248C306.882 43.4133 306.826 45.672 306.826 48.024C306.826 50.264 306.882 52.2053 306.994 53.848C307.106 55.4533 307.162 56.7227 307.162 57.656C307.162 58.0293 306.994 58.3467 306.658 58.608C306.359 58.8693 306.079 59 305.818 59C304.997 59 303.839 59 302.346 59C300.853 58.9627 299.229 58.944 297.474 58.944C295.719 58.944 293.89 58.944 291.986 58.944C290.119 58.9067 288.383 58.888 286.778 58.888C285.845 58.888 284.837 58.9067 283.754 58.944C282.671 58.944 281.626 58.944 280.618 58.944C279.61 58.944 278.677 58.9627 277.818 59C276.959 59 276.306 59 275.858 59C275.709 59 275.597 58.944 275.522 58.832C275.41 58.72 275.354 58.608 275.354 58.496C275.354 58.3467 275.41 58.216 275.522 58.104C275.597 57.992 275.709 57.936 275.858 57.936C276.045 57.936 276.269 57.9733 276.53 58.048C276.829 58.0853 277.053 58.104 277.202 58.104C277.911 58.104 278.378 57.8427 278.602 57.32C278.826 56.76 278.957 55.8267 278.994 54.52C279.031 52.8773 279.069 50.9547 279.106 48.752C279.181 46.5493 279.218 44.272 279.218 41.92C279.255 39.568 279.255 37.1973 279.218 34.808C279.181 32.4187 279.106 30.216 278.994 28.2C278.957 27.304 278.845 26.4827 278.658 25.736C278.509 24.9893 278.079 24.616 277.37 24.616C277.109 24.616 276.829 24.6533 276.53 24.728C276.269 24.7653 276.045 24.784 275.858 24.784C275.709 24.784 275.597 24.728 275.522 24.616C275.41 24.4667 275.354 24.336 275.354 24.224C275.354 24.0747 275.41 23.9627 275.522 23.888C275.597 23.776 275.709 23.72 275.858 23.72C277.575 23.72 279.274 23.7387 280.954 23.776C282.671 23.8133 284.482 23.832 286.386 23.832C288.999 23.832 291.482 23.8133 293.834 23.776C296.223 23.7387 298.613 23.72 301.002 23.72C301.151 23.72 301.282 23.776 301.394 23.888C301.506 24 301.562 24.1307 301.562 24.28C301.562 24.392 301.506 24.5227 301.394 24.672C301.319 24.8213 301.189 24.896 301.002 24.896ZM352.67 59C352.931 59 353.137 59.0747 353.286 59.224C353.435 59.4107 353.51 59.728 353.51 60.176C353.51 60.6613 353.435 60.9787 353.286 61.128C353.137 61.2773 352.931 61.352 352.67 61.352H326.91C326.649 61.352 326.443 61.2587 326.294 61.072C326.145 60.8853 326.07 60.5867 326.07 60.176C326.07 59.6907 326.145 59.3733 326.294 59.224C326.443 59.0747 326.649 59 326.91 59H352.67ZM397 59C397.261 59 397.467 59.0747 397.616 59.224C397.765 59.4107 397.84 59.728 397.84 60.176C397.84 60.6613 397.765 60.9787 397.616 61.128C397.467 61.2773 397.261 61.352 397 61.352H371.24C370.979 61.352 370.773 61.2587 370.624 61.072C370.475 60.8853 370.4 60.5867 370.4 60.176C370.4 59.6907 370.475 59.3733 370.624 59.224C370.773 59.0747 370.979 59 371.24 59H397Z" fill="black"/>
<path d="M32.2369 81.652H27.4489V94H32.2369C35.8189 94 38.2669 91.714 38.2669 87.826C38.2669 83.938 35.8009 81.652 32.2369 81.652ZM32.2369 91.948H29.9329V83.704H32.2369C34.2889 83.704 35.7649 85.108 35.7649 87.826C35.7649 90.544 34.3069 91.948 32.2369 91.948ZM42.8717 82.336C42.8717 81.454 42.1697 80.788 41.2697 80.788C40.3877 80.788 39.6857 81.454 39.6857 82.336C39.6857 83.236 40.3877 83.866 41.2697 83.866C42.1697 83.866 42.8717 83.236 42.8717 82.336ZM40.0277 94H42.5117V85.18H40.0277V94ZM48.5735 94.09C51.2015 94.09 52.4795 92.506 52.7135 90.58H50.3375C50.1935 91.408 49.7435 92.056 48.6635 92.056C47.4935 92.056 46.7195 91.192 46.7195 89.608C46.7195 87.988 47.5295 87.124 48.6815 87.124C49.7075 87.124 50.1935 87.79 50.3375 88.636H52.7135C52.4975 86.674 51.2375 85.09 48.6095 85.09C46.0535 85.09 44.2355 86.944 44.2355 89.608C44.2355 92.236 45.9275 94.09 48.5735 94.09ZM62.8143 91.966C62.6163 92.038 62.5263 92.056 62.3643 92.056C62.1123 92.056 61.9503 91.876 61.9503 91.516V88.672C61.9503 86.44 60.5823 85.09 58.0083 85.09C55.7223 85.09 54.1743 86.188 54.0303 88.186H56.2623C56.3523 87.43 56.9463 86.962 57.8823 86.962C58.9983 86.962 59.5563 87.574 59.5563 88.492V88.888H58.4223C56.0103 88.888 53.7963 89.518 53.7963 91.678C53.7963 93.136 54.8403 94.09 56.7843 94.09C58.6563 94.09 59.3943 93.208 59.6823 92.668H59.7003C60.0063 93.64 60.7443 94.09 61.6983 94.09C62.2023 94.09 62.6163 94.018 62.9583 93.91L62.8143 91.966ZM57.4683 92.29C56.6223 92.29 56.1903 91.966 56.1903 91.39C56.1903 90.616 56.9643 90.238 58.2783 90.238H59.5563V90.796C59.5563 91.498 58.7643 92.29 57.4683 92.29ZM65.6711 85.342C64.7351 85.342 64.1231 85.954 64.1231 86.836C64.1231 87.718 64.7351 88.33 65.6711 88.33C66.6071 88.33 67.2191 87.718 67.2191 86.836C67.2191 85.954 66.6071 85.342 65.6711 85.342ZM65.6891 91.138C64.7531 91.138 64.1411 91.75 64.1411 92.632C64.1411 93.514 64.7531 94.126 65.6891 94.126C66.6251 94.126 67.2371 93.514 67.2371 92.632C67.2371 91.75 66.6251 91.138 65.6891 91.138ZM80.257 78.574H77.881L77.125 80.896H78.619L80.257 78.574ZM75.181 92.596V88.294H81.229V86.872H75.181V83.074H81.805V81.652H73.597V94H81.895V92.596H75.181ZM93.9735 85.18V90.31C93.9735 91.84 93.0195 92.74 91.7415 92.74C90.4635 92.74 89.7615 92.002 89.7615 90.706V85.18H88.1595V90.94C88.1595 92.866 89.3475 94.09 91.2735 94.09C92.5335 94.09 93.4515 93.514 93.9915 92.704L94.0635 94H95.5575V85.18H93.9735ZM108.297 85.09C106.821 85.09 105.831 85.864 105.345 86.89C104.877 85.756 103.869 85.09 102.447 85.09C101.187 85.09 100.287 85.666 99.7472 86.458L99.6752 85.18H98.1812V94H99.7652V88.87C99.7652 87.34 100.665 86.44 102.015 86.44C103.257 86.44 104.013 87.232 104.013 88.708V94H105.615V88.87C105.615 87.34 106.515 86.44 107.865 86.44C109.107 86.44 109.863 87.232 109.863 88.708V94H111.465V88.384C111.465 86.368 110.259 85.09 108.297 85.09ZM122.012 92.56C121.832 92.632 121.724 92.65 121.562 92.65C121.274 92.65 121.058 92.434 121.058 92.056V88.456C121.058 86.332 119.726 85.09 117.404 85.09C115.244 85.09 113.75 86.188 113.606 88.096H115.154C115.262 87.034 116.036 86.44 117.296 86.44C118.718 86.44 119.474 87.196 119.474 88.42V88.996H117.62C115.172 88.996 113.408 89.788 113.408 91.696C113.408 93.1 114.398 94.09 116.396 94.09C118.358 94.09 119.168 93.154 119.492 92.65C119.6 93.514 120.212 94.09 121.13 94.09C121.508 94.09 121.832 94.036 122.138 93.946L122.012 92.56ZM116.72 92.812C115.532 92.812 115.028 92.362 115.028 91.624C115.028 90.652 115.874 90.148 117.53 90.148H119.474V90.76C119.474 91.57 118.502 92.812 116.72 92.812ZM131.828 85.09C130.676 85.09 129.938 85.738 129.506 86.602L129.47 85.18H127.976V94H129.56V89.356C129.56 87.574 130.604 86.638 131.72 86.638C132.08 86.638 132.242 86.674 132.314 86.71L132.332 85.144C132.224 85.126 132.062 85.09 131.828 85.09ZM141.375 89.608C141.375 86.764 139.827 85.09 137.361 85.09C134.895 85.09 133.149 86.962 133.149 89.608C133.149 92.2 134.643 94.09 137.397 94.09C139.755 94.09 140.979 92.812 141.321 91.21H139.719C139.557 91.93 138.963 92.74 137.415 92.74C135.867 92.74 134.913 91.678 134.787 90.004H141.375V89.608ZM137.379 86.44C138.711 86.44 139.575 87.25 139.773 88.834H134.823C135.075 87.358 136.029 86.44 137.379 86.44ZM149.96 85.18L149.888 86.566C149.366 85.702 148.448 85.09 147.008 85.09C144.578 85.09 142.922 86.89 142.922 89.572C142.922 92.29 144.578 94.09 147.008 94.09C148.43 94.09 149.348 93.496 149.87 92.65V94.18C149.87 95.404 149.042 96.43 147.188 96.43C145.766 96.43 145.01 96.016 144.812 94.954H143.228C143.444 96.808 144.812 97.78 147.206 97.78C149.96 97.78 151.454 96.232 151.454 94.18V85.18H149.96ZM147.116 92.74C145.568 92.74 144.542 91.48 144.542 89.572C144.542 87.7 145.568 86.44 147.116 86.44C149.006 86.44 149.87 88.078 149.87 89.41V89.77C149.87 91.102 149.006 92.74 147.116 92.74ZM156.024 82.3C156.024 81.688 155.538 81.22 154.926 81.22C154.314 81.22 153.828 81.688 153.828 82.3C153.828 82.93 154.314 83.38 154.926 83.38C155.538 83.38 156.024 82.93 156.024 82.3ZM154.08 94H155.682V85.18H154.08V94ZM160.62 82.624C161.376 82.624 161.628 83.47 162.87 83.47C163.932 83.47 164.58 82.75 164.58 81.436H163.41C163.41 81.922 163.158 82.21 162.744 82.21C161.988 82.21 161.772 81.364 160.476 81.364C159.288 81.364 158.766 82.102 158.766 83.398H159.954C159.954 82.948 160.17 82.624 160.62 82.624ZM166.326 92.56C166.146 92.632 166.038 92.65 165.876 92.65C165.588 92.65 165.372 92.434 165.372 92.056V88.456C165.372 86.332 164.04 85.09 161.718 85.09C159.558 85.09 158.064 86.188 157.92 88.096H159.468C159.576 87.034 160.35 86.44 161.61 86.44C163.032 86.44 163.788 87.196 163.788 88.42V88.996H161.934C159.486 88.996 157.722 89.788 157.722 91.696C157.722 93.1 158.712 94.09 160.71 94.09C162.672 94.09 163.482 93.154 163.806 92.65C163.914 93.514 164.526 94.09 165.444 94.09C165.822 94.09 166.146 94.036 166.452 93.946L166.326 92.56ZM161.034 92.812C159.846 92.812 159.342 92.362 159.342 91.624C159.342 90.652 160.188 90.148 161.844 90.148H163.788V90.76C163.788 91.57 162.816 92.812 161.034 92.812ZM171.958 85.09C169.348 85.09 167.602 86.998 167.602 89.68C167.602 92.344 169.348 94.09 171.958 94.09C174.604 94.09 176.332 92.236 176.332 89.572C176.332 86.89 174.604 85.09 171.958 85.09ZM171.958 86.44C173.632 86.44 174.712 87.754 174.712 89.626C174.712 91.48 173.632 92.74 171.958 92.74C170.32 92.74 169.222 91.48 169.222 89.626C169.222 87.754 170.32 86.44 171.958 86.44ZM186.39 85.09C183.78 85.09 182.034 86.998 182.034 89.68C182.034 92.344 183.78 94.09 186.39 94.09C189.036 94.09 190.764 92.236 190.764 89.572C190.764 86.89 189.036 85.09 186.39 85.09ZM186.39 86.44C188.064 86.44 189.144 87.754 189.144 89.626C189.144 91.48 188.064 92.74 186.39 92.74C184.752 92.74 183.654 91.48 183.654 89.626C183.654 87.754 184.752 86.44 186.39 86.44ZM198.581 85.18V90.31C198.581 91.84 197.627 92.74 196.349 92.74C195.071 92.74 194.369 92.002 194.369 90.706V85.18H192.767V90.94C192.767 92.866 193.955 94.09 195.881 94.09C197.141 94.09 198.059 93.514 198.599 92.704L198.671 94H200.165V85.18H198.581ZM211.527 85.09C210.087 85.09 209.079 85.756 208.521 86.656V81.22H206.937V94H208.485L208.521 92.65C209.043 93.496 209.979 94.09 211.419 94.09C213.885 94.09 215.541 92.2 215.541 89.482C215.541 86.8 213.921 85.09 211.527 85.09ZM211.311 92.74C209.385 92.74 208.521 91.102 208.521 89.77V89.374C208.521 88.078 209.421 86.44 211.347 86.44C212.931 86.44 213.921 87.646 213.921 89.518C213.921 91.426 212.895 92.74 211.311 92.74ZM225.652 92.56C225.472 92.632 225.364 92.65 225.202 92.65C224.914 92.65 224.698 92.434 224.698 92.056V88.456C224.698 86.332 223.366 85.09 221.044 85.09C218.884 85.09 217.39 86.188 217.246 88.096H218.794C218.902 87.034 219.676 86.44 220.936 86.44C222.358 86.44 223.114 87.196 223.114 88.42V88.996H221.26C218.812 88.996 217.048 89.788 217.048 91.696C217.048 93.1 218.038 94.09 220.036 94.09C221.998 94.09 222.808 93.154 223.132 92.65C223.24 93.514 223.852 94.09 224.77 94.09C225.148 94.09 225.472 94.036 225.778 93.946L225.652 92.56ZM220.36 92.812C219.172 92.812 218.668 92.362 218.668 91.624C218.668 90.652 219.514 90.148 221.17 90.148H223.114V90.76C223.114 91.57 222.142 92.812 220.36 92.812ZM229.412 82.3C229.412 81.688 228.926 81.22 228.314 81.22C227.702 81.22 227.216 81.688 227.216 82.3C227.216 82.93 227.702 83.38 228.314 83.38C228.926 83.38 229.412 82.93 229.412 82.3ZM227.468 94H229.07V85.18H227.468V94ZM235.557 85.09C234.405 85.09 233.667 85.738 233.235 86.602L233.199 85.18H231.705V94H233.289V89.356C233.289 87.574 234.333 86.638 235.449 86.638C235.809 86.638 235.971 86.674 236.043 86.71L236.061 85.144C235.953 85.126 235.791 85.09 235.557 85.09ZM241.568 85.09C240.416 85.09 239.678 85.738 239.246 86.602L239.21 85.18H237.716V94H239.3V89.356C239.3 87.574 240.344 86.638 241.46 86.638C241.82 86.638 241.982 86.674 242.054 86.71L242.072 85.144C241.964 85.126 241.802 85.09 241.568 85.09ZM247.245 85.09C244.635 85.09 242.889 86.998 242.889 89.68C242.889 92.344 244.635 94.09 247.245 94.09C249.891 94.09 251.619 92.236 251.619 89.572C251.619 86.89 249.891 85.09 247.245 85.09ZM247.245 86.44C248.919 86.44 249.999 87.754 249.999 89.626C249.999 91.48 248.919 92.74 247.245 92.74C245.607 92.74 244.509 91.48 244.509 89.626C244.509 87.754 245.607 86.44 247.245 86.44ZM264.341 81.22V86.53C263.819 85.684 262.883 85.09 261.443 85.09C258.977 85.09 257.321 86.98 257.321 89.698C257.321 92.38 258.941 94.09 261.335 94.09C262.775 94.09 263.783 93.424 264.341 92.524L264.377 94H265.925V81.22H264.341ZM261.515 92.74C259.931 92.74 258.941 91.534 258.941 89.662C258.941 87.754 259.967 86.44 261.551 86.44C263.477 86.44 264.341 88.078 264.341 89.41V89.806C264.341 91.102 263.441 92.74 261.515 92.74ZM276.234 89.608C276.234 86.764 274.686 85.09 272.22 85.09C269.754 85.09 268.008 86.962 268.008 89.608C268.008 92.2 269.502 94.09 272.256 94.09C274.614 94.09 275.838 92.812 276.18 91.21H274.578C274.416 91.93 273.822 92.74 272.274 92.74C270.726 92.74 269.772 91.678 269.646 90.004H276.234V89.608ZM272.238 86.44C273.57 86.44 274.434 87.25 274.632 88.834H269.682C269.934 87.358 270.888 86.44 272.238 86.44ZM289.346 87.502V87.466C289.94 87.25 291.002 86.422 291.002 84.73C291.002 82.966 289.778 81.652 287.654 81.652H282.794V94H287.69C289.994 94 291.452 92.686 291.452 90.58C291.452 88.78 290.408 87.79 289.346 87.502ZM289.4 84.964C289.4 86.098 288.734 86.962 287.33 86.962H284.378V83.038H287.348C288.608 83.038 289.4 83.722 289.4 84.964ZM287.654 92.632H284.378V88.258H287.546C288.968 88.258 289.85 88.978 289.85 90.454C289.85 91.912 288.986 92.632 287.654 92.632ZM301.354 89.608C301.354 86.764 299.806 85.09 297.34 85.09C294.874 85.09 293.128 86.962 293.128 89.608C293.128 92.2 294.622 94.09 297.376 94.09C299.734 94.09 300.958 92.812 301.3 91.21H299.698C299.536 91.93 298.942 92.74 297.394 92.74C295.846 92.74 294.892 91.678 294.766 90.004H301.354V89.608ZM297.358 86.44C298.69 86.44 299.554 87.25 299.752 88.834H294.802C295.054 87.358 296.008 86.44 297.358 86.44ZM305.925 92.56C305.745 92.632 305.655 92.65 305.511 92.65C305.205 92.65 304.971 92.434 304.971 92.056V81.22H303.387V92.362C303.387 93.388 304.017 94.09 305.043 94.09C305.421 94.09 305.745 94.036 306.051 93.946L305.925 92.56ZM311.669 85.09C309.059 85.09 307.313 86.998 307.313 89.68C307.313 92.344 309.059 94.09 311.669 94.09C314.315 94.09 316.043 92.236 316.043 89.572C316.043 86.89 314.315 85.09 311.669 85.09ZM311.669 86.44C313.343 86.44 314.423 87.754 314.423 89.626C314.423 91.48 313.343 92.74 311.669 92.74C310.031 92.74 308.933 91.48 308.933 89.626C308.933 87.754 310.031 86.44 311.669 86.44ZM330.727 81.652V86.89H324.193V81.652H322.609V94H324.193V88.312H330.727V94H332.311V81.652H330.727ZM338.898 85.09C336.288 85.09 334.542 86.998 334.542 89.68C334.542 92.344 336.288 94.09 338.898 94.09C341.544 94.09 343.272 92.236 343.272 89.572C343.272 86.89 341.544 85.09 338.898 85.09ZM338.898 86.44C340.572 86.44 341.652 87.754 341.652 89.626C341.652 91.48 340.572 92.74 338.898 92.74C337.26 92.74 336.162 91.48 336.162 89.626C336.162 87.754 337.26 86.44 338.898 86.44ZM349.217 85.09C348.065 85.09 347.327 85.738 346.895 86.602L346.859 85.18H345.365V94H346.949V89.356C346.949 87.574 347.993 86.638 349.109 86.638C349.469 86.638 349.631 86.674 349.703 86.71L349.721 85.144C349.613 85.126 349.451 85.09 349.217 85.09ZM353.321 82.3C353.321 81.688 352.835 81.22 352.223 81.22C351.611 81.22 351.125 81.688 351.125 82.3C351.125 82.93 351.611 83.38 352.223 83.38C352.835 83.38 353.321 82.93 353.321 82.3ZM351.377 94H352.979V85.18H351.377V94ZM356.927 92.668L361.769 86.458V85.18H355.109V86.512H359.843L354.983 92.704V94H361.913V92.668H356.927ZM367.515 85.09C364.905 85.09 363.159 86.998 363.159 89.68C363.159 92.344 364.905 94.09 367.515 94.09C370.161 94.09 371.889 92.236 371.889 89.572C371.889 86.89 370.161 85.09 367.515 85.09ZM367.515 86.44C369.189 86.44 370.269 87.754 370.269 89.626C370.269 91.48 369.189 92.74 367.515 92.74C365.877 92.74 364.779 91.48 364.779 89.626C364.779 87.754 365.877 86.44 367.515 86.44ZM378.374 85.09C377.042 85.09 376.106 85.684 375.548 86.494L375.476 85.18H373.982V94H375.566V88.87C375.566 87.376 376.52 86.44 377.942 86.44C379.256 86.44 379.958 87.268 379.958 88.762V94H381.56V88.438C381.56 86.278 380.318 85.09 378.374 85.09ZM388.988 92.488C388.61 92.65 388.232 92.704 387.836 92.704C386.396 92.704 385.982 91.984 385.982 91.102V86.512H388.844V85.18H385.982V82.552H384.488V85.18H383.066V86.548H384.398V91.102C384.398 92.938 385.622 94.09 387.674 94.09C388.232 94.09 388.772 94 389.06 93.874L388.988 92.488ZM398.209 89.608C398.209 86.764 396.661 85.09 394.195 85.09C391.729 85.09 389.983 86.962 389.983 89.608C389.983 92.2 391.477 94.09 394.231 94.09C396.589 94.09 397.813 92.812 398.155 91.21H396.553C396.391 91.93 395.797 92.74 394.249 92.74C392.701 92.74 391.747 91.678 391.621 90.004H398.209V89.608ZM394.213 86.44C395.545 86.44 396.409 87.25 396.607 88.834H391.657C391.909 87.358 392.863 86.44 394.213 86.44ZM400.962 91.912C400.296 91.912 399.846 92.362 399.846 93.01C399.846 93.658 400.296 94.09 400.962 94.09C401.628 94.09 402.078 93.658 402.078 93.01C402.078 92.362 401.628 91.912 400.962 91.912Z" fill="#19180A"/>
</svg>
