<svg width="152" height="55" viewBox="0 0 152 55" fill="none" xmlns="http://www.w3.org/2000/svg">
<g clip-path="url(#clip0)">
<path d="M15.9392 19.3584H18.0359V15.7066C17.6741 15.6569 16.4301 15.5449 14.9813 15.5449C11.9582 15.5449 9.88735 17.4464 9.88735 20.9412V24.1576H6.55139V28.2399H9.88735V38.512H13.9774V28.2409H17.1784L17.6866 24.1585H13.9764V21.346C13.9774 20.1661 14.2951 19.3584 15.9392 19.3584Z" fill="white"/>
</g>
<path d="M51.2592 21.6647H47.8128V26.7971H51.0113V29.227H47.8128V37H44.8375V19.2225H51.2592V21.6647ZM61.7552 37L61.47 33.8511H59.1146L58.8294 37H55.8789L58.0732 19.2225H62.6106L64.7925 37H61.7552ZM59.3377 31.3841H61.2469L60.4039 21.6895H60.1807L59.3377 31.3841ZM75.6107 31.3593H78.586C78.6521 33.4585 78.3629 34.9669 77.7182 35.8843C77.0818 36.7934 76.0405 37.2479 74.5941 37.2479C73.1891 37.2479 72.1684 36.8264 71.532 35.9834C70.9039 35.1404 70.5899 33.8015 70.5899 31.9668V24.2805C70.5899 22.4375 70.9205 21.0945 71.5816 20.2515C72.2428 19.4002 73.2759 18.9745 74.6809 18.9745C76.1025 18.9745 77.1232 19.4332 77.743 20.3506C78.3711 21.2598 78.6521 22.7722 78.586 24.888H75.6107C75.6768 23.4995 75.6603 22.5821 75.5611 22.1358C75.4619 21.6895 75.1685 21.4664 74.6809 21.4664C74.2098 21.4664 73.904 21.6647 73.7635 22.0614C73.623 22.4581 73.5528 23.1978 73.5528 24.2805V31.9668C73.5528 33.0494 73.6189 33.7891 73.7511 34.1858C73.8916 34.5743 74.2016 34.7685 74.6809 34.7685C75.1685 34.7685 75.4619 34.5454 75.5611 34.0991C75.6603 33.6445 75.6768 32.7312 75.6107 31.3593ZM91.5738 21.6647H88.1274V26.8963H91.3258V29.3386H88.1274V34.5578H91.5738V37H85.152V19.2225H91.5738V21.6647ZM104.152 27.5534C105.409 28.2146 106.037 29.603 106.037 31.7188C106.037 33.38 105.648 34.6776 104.871 35.6115C104.103 36.5372 102.975 37 101.487 37H98.0406V19.2225H101.487C102.942 19.2225 104.041 19.6151 104.785 20.4002C105.528 21.1771 105.9 22.3011 105.9 23.7722C105.9 25.5988 105.318 26.8591 104.152 27.5534ZM101.487 21.6895H101.004V26.3632H101.487C102.008 26.3632 102.359 26.1608 102.541 25.7558C102.723 25.3508 102.814 24.7227 102.814 23.8714C102.814 23.0449 102.727 22.4747 102.553 22.1606C102.388 21.8466 102.032 21.6895 101.487 21.6895ZM101.487 34.533C102.066 34.533 102.45 34.3305 102.64 33.9255C102.838 33.5205 102.937 32.7602 102.937 31.6444C102.937 30.5287 102.838 29.7807 102.64 29.4005C102.45 29.0204 102.066 28.8303 101.487 28.8303H101.004V34.533H101.487ZM116.322 18.9745C119.033 18.9745 120.388 20.5738 120.388 23.7722V32.4502C120.388 35.6487 119.025 37.2479 116.297 37.2479C113.586 37.2479 112.235 35.6487 112.243 32.4502V23.7722C112.235 20.5738 113.595 18.9745 116.322 18.9745ZM115.417 34.2478C115.549 34.595 115.851 34.7685 116.322 34.7685C116.801 34.7685 117.099 34.5991 117.215 34.2602C117.33 33.9214 117.388 33.318 117.388 32.4502V23.7722C117.388 22.9127 117.33 22.3135 117.215 21.9747C117.099 21.6358 116.801 21.4664 116.322 21.4664C115.851 21.4664 115.549 21.6399 115.417 21.9871C115.293 22.3342 115.231 22.9292 115.231 23.7722V32.4502C115.231 33.2933 115.293 33.8924 115.417 34.2478ZM130.859 18.9745C133.57 18.9745 134.926 20.5738 134.926 23.7722V32.4502C134.926 35.6487 133.562 37.2479 130.835 37.2479C128.124 37.2479 126.772 35.6487 126.781 32.4502V23.7722C126.772 20.5738 128.132 18.9745 130.859 18.9745ZM129.954 34.2478C130.087 34.595 130.388 34.7685 130.859 34.7685C131.339 34.7685 131.636 34.5991 131.752 34.2602C131.868 33.9214 131.925 33.318 131.925 32.4502V23.7722C131.925 22.9127 131.868 22.3135 131.752 21.9747C131.636 21.6358 131.339 21.4664 130.859 21.4664C130.388 21.4664 130.087 21.6399 129.954 21.9871C129.83 22.3342 129.768 22.9292 129.768 23.7722V32.4502C129.768 33.2933 129.83 33.8924 129.954 34.2478ZM147.38 37L145.149 29.4129H144.616V37H141.64V19.2225H144.616V26.8715H145.124L147.256 19.2225H150.43L147.715 28.1112L150.554 37H147.38Z" fill="white"/>
<defs>
<clipPath id="clip0">
<rect width="22.967" height="22.967" fill="white" transform="translate(0.630768 15.5449)"/>
</clipPath>
</defs>
</svg>
