<svg width="169" height="55" viewBox="0 0 169 55" fill="none" xmlns="http://www.w3.org/2000/svg">
<g clip-path="url(#clip0)">
<path d="M11.9463 20.9531C8.55948 20.9531 5.8176 23.698 5.8176 27.0818C5.8176 30.4686 8.56246 33.2105 11.9463 33.2105C15.3331 33.2105 18.0749 30.4656 18.0749 27.0818C18.0749 23.695 15.3301 20.9531 11.9463 20.9531ZM11.9463 31.0598C9.74779 31.0598 7.96831 29.2793 7.96831 27.0818C7.96831 24.8843 9.74879 23.1038 11.9463 23.1038C14.1438 23.1038 15.9242 24.8843 15.9242 27.0818C15.9252 29.2793 14.1448 31.0598 11.9463 31.0598Z" fill="white"/>
<path d="M16.8674 15.2186C14.6699 15.1161 9.22693 15.121 7.02745 15.2186C5.0947 15.3091 3.38985 15.7759 2.01543 17.1503C-0.281579 19.4474 0.0120165 22.5425 0.0120165 27.0818C0.0120165 31.7276 -0.246745 34.7511 2.01543 37.0133C4.3214 39.3183 7.46137 39.0167 11.9469 39.0167C16.5489 39.0167 18.1373 39.0197 19.7645 38.3897C21.9769 37.5308 23.6469 35.5533 23.8102 32.0013C23.9137 29.8028 23.9077 24.3608 23.8102 22.1614C23.6131 17.9684 21.3629 15.4256 16.8674 15.2186ZM20.3457 35.4936C18.8399 36.9994 16.7509 36.865 11.918 36.865C6.94186 36.865 4.94641 36.9387 3.49037 35.4787C1.8134 33.8096 2.11695 31.1295 2.11695 27.0659C2.11695 21.5672 1.55265 17.6072 7.07124 17.3245C8.33917 17.2797 8.71239 17.2648 11.9041 17.2648L11.9489 17.2947C17.2525 17.2947 21.4136 16.7393 21.6634 22.2569C21.7201 23.5159 21.7331 23.8941 21.7331 27.0808C21.7321 31.9993 21.8256 34.0067 20.3457 35.4936Z" fill="white"/>
<path d="M18.3173 22.1436C19.1083 22.1436 19.7495 21.5024 19.7495 20.7114C19.7495 19.9205 19.1083 19.2793 18.3173 19.2793C17.5264 19.2793 16.8852 19.9205 16.8852 20.7114C16.8852 21.5024 17.5264 22.1436 18.3173 22.1436Z" fill="white"/>
</g>
<path d="M48.1007 37.0571H45.1254V19.2796H48.1007V37.0571ZM60.6422 19.2796H63.6299V37.0571H60.7166L58.3487 28.2676L58.1256 26.346V37.0571H55.1503V19.2796H58.0512L60.4066 28.3791L60.6422 30.3255V19.2796ZM78.2789 32.7677C78.2789 35.8009 76.9152 37.3133 74.1878 37.3051C71.1381 37.3051 69.8447 35.3339 70.3075 31.3916H73.2704C73.2043 32.2181 73.1836 32.8876 73.2084 33.4C73.2332 33.9124 73.3241 34.2802 73.4812 34.5033C73.6465 34.7182 73.8903 34.8256 74.2126 34.8256C74.601 34.8256 74.8738 34.6851 75.0308 34.4041C75.1961 34.1231 75.2788 33.6768 75.2788 33.0652C75.2788 32.5776 75.2374 32.1479 75.1548 31.7759C75.0721 31.404 74.9234 31.0569 74.7085 30.7346C74.4936 30.4123 74.3035 30.1643 74.1382 29.9908C73.9812 29.8089 73.7085 29.5403 73.32 29.1849C72.9316 28.8296 72.6464 28.561 72.4646 28.3791C70.9108 26.8419 70.1298 25.1972 70.1215 23.4451C70.1215 20.5028 71.4356 19.0317 74.0638 19.0317C75.5019 19.0317 76.5309 19.4945 77.1507 20.4202C77.7788 21.3375 78.0103 22.8293 77.845 24.8955L74.944 24.9203C75.0102 24.0773 75.0267 23.4079 74.9936 22.912C74.9606 22.4078 74.8738 22.0525 74.7333 21.8458C74.5928 21.6309 74.3696 21.5235 74.0638 21.5235C73.6754 21.5235 73.4192 21.6599 73.2952 21.9326C73.1795 22.1971 73.1217 22.5855 73.1217 23.0979C73.1217 23.9244 73.3117 24.6269 73.6919 25.2055C74.0721 25.7757 74.7787 26.5609 75.8118 27.5609C76.7292 28.437 77.3697 29.2593 77.7334 30.0279C78.097 30.7883 78.2789 31.7016 78.2789 32.7677ZM92.2708 19.2796V21.7467H89.2583V37.0571H86.2582V21.7467H83.2333V19.2796H92.2708ZM102.283 37.0571L101.998 33.9083H99.6426L99.3575 37.0571H96.407L98.6013 19.2796H103.139L105.321 37.0571H102.283ZM99.8658 31.4412H101.775L100.932 21.7467H100.709L99.8658 31.4412ZM115.048 28.1436H119.188V32.5074C119.188 35.7058 117.833 37.3051 115.122 37.3051C112.395 37.3051 111.035 35.7058 111.044 32.5074V23.8294C111.044 22.2177 111.362 21.0152 111.998 20.2218C112.643 19.4284 113.676 19.0317 115.097 19.0317C116.618 19.0317 117.676 19.4862 118.271 20.3954C118.866 21.2962 119.131 22.8128 119.064 24.9451H116.064C116.13 23.5732 116.097 22.6599 115.965 22.2053C115.833 21.7508 115.552 21.5235 115.122 21.5235C114.684 21.5235 114.391 21.6888 114.242 22.0194C114.101 22.3417 114.031 22.945 114.031 23.8294V32.5074C114.031 33.3834 114.106 33.9909 114.254 34.3298C114.411 34.6603 114.701 34.8256 115.122 34.8256C115.552 34.8256 115.837 34.6603 115.978 34.3298C116.118 33.9992 116.188 33.3917 116.188 32.5074V30.6106H115.048V28.1436ZM133.193 32.7677L133.751 37.0571H130.763L130.279 32.7677C130.213 32.1892 130.118 31.809 129.994 31.6272C129.879 31.4371 129.701 31.342 129.461 31.342H128.73V37.0571H125.854V19.2796H129.461C130.85 19.2796 131.875 19.6681 132.536 20.445C133.197 21.2136 133.527 22.3996 133.527 24.0029V26.222C133.527 28.0651 132.978 29.3502 131.879 30.0775C132.589 30.5486 133.027 31.4454 133.193 32.7677ZM128.73 28.9122H129.461C129.866 28.9122 130.147 28.7056 130.304 28.2923C130.47 27.8708 130.552 27.1807 130.552 26.222V24.0029C130.552 23.1021 130.474 22.5029 130.317 22.2053C130.168 21.8996 129.883 21.7467 129.461 21.7467H128.73V28.9122ZM145.176 37.0571L144.891 33.9083H142.536L142.251 37.0571H139.3L141.494 19.2796H146.032L148.214 37.0571H145.176ZM142.759 31.4412H144.668L143.825 21.7467H143.602L142.759 31.4412ZM166.904 19.2796V37.0571H163.941V27.0278L161.933 37.0571H159.143L157.21 27.4865V37.0571H154.259V19.2796H157.867L160.532 32.0239L163.272 19.2796H166.904Z" fill="white"/>
<defs>
<clipPath id="clip0">
<rect width="23.8857" height="23.8857" fill="white" transform="translate(0 15.1431)"/>
</clipPath>
</defs>
</svg>
