<svg width="123" height="35" viewBox="0 0 123 35" fill="none" xmlns="http://www.w3.org/2000/svg">
<path d="M10.589 15.8698C10.426 15.8121 10.2538 15.7818 10.0799 15.7804C9.82414 15.7834 9.5728 15.8447 9.34687 15.9591L4.34977 18.3484L4.57377 15.2676L9.09844 13.0648C9.28735 12.9844 9.4541 12.8632 9.58555 12.7108C9.71701 12.5585 9.80957 12.3791 9.85594 12.1867C9.87597 12.1 9.88553 12.0114 9.88445 11.9226C9.87778 11.6478 9.79487 11.3797 9.64417 11.1455C9.45306 10.8166 9.14559 10.5633 8.7767 10.4307C8.61492 10.3742 8.44398 10.3453 8.2717 10.3452C8.01522 10.3491 7.76308 10.4089 7.53455 10.5201L4.84256 11.8449L5.24982 6.47571L12.8167 3.71343C13.0221 3.64424 13.21 3.53489 13.3685 3.39239C13.527 3.24989 13.6526 3.07738 13.7371 2.88591C13.8234 2.6916 13.8691 2.48308 13.8715 2.27207C13.8714 2.11206 13.8495 1.95274 13.8064 1.7981C13.7213 1.44744 13.4963 1.14223 13.1792 0.94727C12.9898 0.838485 12.7731 0.780749 12.552 0.780212C12.365 0.783422 12.1801 0.818963 12.0063 0.885109L4.73667 3.51141C4.50433 3.38622 4.24193 3.32063 3.97509 3.32104C3.77008 3.32751 3.56769 3.36691 3.37642 3.43759C3.13896 3.50064 2.92181 3.61933 2.7447 3.78286C2.56759 3.94638 2.43615 4.14955 2.36234 4.37389L1.75959 4.60311C1.38368 4.73054 1.07325 4.99053 0.892124 5.32962C0.778538 5.55642 0.720069 5.80476 0.721074 6.05612C0.721074 6.14159 0.721074 6.23095 0.721074 6.32419C0.761971 6.65284 0.911785 6.96044 1.1487 7.20221C1.2597 7.3113 1.3927 7.39782 1.53968 7.45658C1.68666 7.51533 1.84459 7.5451 2.00395 7.5441H2.06911L1.62927 13.4105L0.786236 13.799C0.551274 13.8846 0.349701 14.0372 0.209028 14.236C0.0683547 14.4349 -0.00456495 14.6703 0.000221406 14.9102C0.00176223 15.0611 0.0236627 15.2113 0.0653832 15.3569C0.15563 15.6457 0.327542 15.9051 0.562242 16.1068C0.788871 16.3216 1.08406 16.4583 1.4012 16.4953L1.06725 20.8077V20.9359C1.05849 21.1784 1.12645 21.4177 1.26228 21.6228C1.39811 21.8279 1.59553 21.9893 1.82882 22.0859C2.08065 22.2106 2.35964 22.2771 2.64335 22.2801C2.90406 22.2704 3.15899 22.204 3.38864 22.0859L10.923 18.4844C11.1121 18.4037 11.2792 18.2826 11.4113 18.1303C11.5434 17.978 11.6369 17.7987 11.6845 17.6064C11.7025 17.518 11.712 17.4283 11.7131 17.3383C11.7064 17.0636 11.6235 16.7955 11.4728 16.5613C11.2716 16.2397 10.959 15.9951 10.589 15.8698Z" fill="white"/>
<path d="M17.9199 18.3834C17.701 18.2487 17.4472 18.1747 17.1868 18.1697C17.0367 18.1683 16.8876 18.1933 16.747 18.2435L15.4112 18.7524V6.83307C15.4177 6.63252 15.3777 6.43307 15.2939 6.24902C15.2101 6.06498 15.0846 5.9009 14.9265 5.76857C14.6391 5.51645 14.2622 5.37763 13.8717 5.38006C13.4827 5.36957 13.1031 5.49533 12.8047 5.7336C12.6462 5.86961 12.5209 6.03722 12.4379 6.22453C12.3549 6.41185 12.316 6.6143 12.3241 6.81754V20.9203C12.3282 21.1474 12.3869 21.3706 12.4956 21.5726C12.6043 21.7747 12.7602 21.9503 12.9513 22.0858C13.1234 22.2483 13.3423 22.3583 13.5802 22.4019C13.818 22.4455 14.0641 22.4207 14.2871 22.3306L17.5819 21.0835C17.9593 20.9505 18.2819 20.7053 18.5023 20.3842C18.6494 20.1718 18.73 19.9238 18.7344 19.6693C18.734 19.5382 18.7162 19.4077 18.6815 19.2808C18.6247 19.0899 18.5279 18.9119 18.397 18.7577C18.2661 18.6034 18.1038 18.4761 17.9199 18.3834Z" fill="white"/>
<path d="M36.6946 5.11206C36.7205 5.00369 36.7342 4.89298 36.7353 4.78183C36.7352 4.52163 36.6605 4.2664 36.5195 4.04367C36.3528 3.74793 36.0857 3.51503 35.762 3.38321C35.5731 3.29945 35.3675 3.25571 35.1593 3.255C35.0218 3.25587 34.8851 3.27283 34.752 3.30551C34.3747 3.40651 34.0543 3.64518 33.8601 3.96986L29.4372 10.726L27.2502 4.3234C27.1422 3.96601 26.9001 3.65903 26.5701 3.46091C26.3582 3.3334 26.112 3.26727 25.8615 3.27055C25.7727 3.27078 25.6841 3.27858 25.5968 3.29386C25.2494 3.3395 24.9289 3.49716 24.6886 3.74064C24.421 4.00674 24.2571 4.35228 24.2243 4.71967L22.7133 18.4106C22.7093 18.4533 22.7093 18.4962 22.7133 18.5388C22.7177 18.7114 22.7607 18.8811 22.8393 19.0365C22.918 19.1919 23.0306 19.3296 23.1695 19.4402C23.3113 19.5799 23.4809 19.6913 23.6682 19.768C23.8556 19.8447 24.0571 19.8851 24.2609 19.8869C24.4642 19.8926 24.6662 19.8555 24.8528 19.7783C25.0393 19.7011 25.2057 19.5857 25.3402 19.4402C25.6136 19.1572 25.7786 18.7944 25.8085 18.4106L26.5416 11.7439L27.515 14.5683C27.5901 14.8504 27.7549 15.1034 27.9868 15.2926C28.2187 15.4818 28.5062 15.5979 28.81 15.625H29.0625C29.3233 15.6261 29.5797 15.5607 29.8052 15.4358C30.0307 15.3108 30.2172 15.1307 30.3454 14.9141L32.5813 11.503L32.4062 12.8628C31.9712 16.33 31.7401 19.8178 31.7138 23.3097C31.7047 25.2044 31.8067 27.098 32.0193 28.9819C32.0557 29.3687 32.2197 29.7345 32.4876 30.0269C32.6251 30.1678 32.7925 30.2791 32.9786 30.3534C33.1646 30.4278 33.3652 30.4635 33.5669 30.4582C33.9766 30.4543 34.369 30.2998 34.6624 30.0269C34.8044 29.915 34.9195 29.7752 34.9996 29.6169C35.0797 29.4587 35.1231 29.2858 35.1267 29.1101C35.1305 29.0674 35.1305 29.0245 35.1267 28.9819C34.9133 27.1228 34.8113 25.2536 34.8212 23.3835C34.8356 20.042 35.0395 16.7038 35.4321 13.3834C35.7851 10.3219 36.2059 7.56483 36.6946 5.11206Z" fill="white"/>
<path d="M47.8573 17.4549C47.7189 13.6061 47.3238 8.63967 46.6722 2.55567C46.6335 2.19007 46.4638 1.84839 46.1916 1.58829C45.8681 1.2766 45.4296 1.0981 44.9699 1.091C44.725 1.08874 44.4841 1.15055 44.2734 1.26972C43.9415 1.47426 43.7074 1.79528 43.6218 2.16328L40.6285 13.1696C39.6575 12.8644 38.6689 12.6128 37.6677 12.4159C37.5444 12.3915 37.4189 12.3785 37.293 12.3771C36.9921 12.3767 36.6987 12.4664 36.454 12.6335C36.1329 12.8544 35.9014 13.1741 35.7983 13.5387C35.7558 13.6869 35.7339 13.8397 35.7332 13.9933C35.7319 14.2009 35.7822 14.406 35.8798 14.5916C35.9767 14.7669 36.1151 14.9182 36.2841 15.0336C36.4531 15.1489 36.6479 15.225 36.8531 15.2559C37.8668 15.4718 38.8652 15.7482 39.8424 16.0834L39.3089 18.026C39.2758 18.1531 39.258 18.2835 39.256 18.4145C39.2515 18.6907 39.3384 18.9612 39.5044 19.1876C39.7194 19.4946 40.0483 19.7125 40.4248 19.7976C40.5801 19.8382 40.7403 19.8591 40.9013 19.8597C41.1241 19.8597 41.344 19.8119 41.5448 19.7199C41.7362 19.6342 41.9036 19.5064 42.0332 19.347C42.1627 19.1876 42.2508 19.0012 42.2901 18.803L42.7177 17.249C43.4726 17.6184 44.1725 18.0822 44.7988 18.6282C44.7988 19.4052 44.8232 20.1822 44.8232 20.9281C44.8232 22.4394 44.7907 23.8924 44.7174 25.2949V25.3959C44.7078 25.5757 44.7393 25.7553 44.8096 25.9223C44.8799 26.0893 44.9874 26.2398 45.1246 26.3633C45.4105 26.6042 45.7819 26.732 46.1631 26.7207C46.5564 26.7259 46.9388 26.5979 47.2424 26.3594C47.4092 26.2298 47.5444 26.0671 47.6386 25.8826C47.7329 25.6981 47.7839 25.4962 47.7881 25.291C47.856 23.8639 47.8913 22.3617 47.894 20.7844V20.256C48.241 20.0819 48.508 19.7912 48.6434 19.4401C48.6922 19.3158 48.7183 19.1844 48.7207 19.0516C48.7125 18.784 48.6249 18.524 48.4682 18.3018C48.2819 18.0085 48.078 17.7257 47.8573 17.4549ZM43.5241 14.3157L44.3916 11.0678C44.4893 12.3499 44.5748 13.6203 44.6441 14.8868C44.2938 14.6809 43.9151 14.4867 43.5241 14.3157Z" fill="white"/>
<path d="M61.6717 5.07705C61.919 4.78046 62.0501 4.41086 62.0423 4.03197C62.0548 3.67122 61.9222 3.31956 61.6717 3.04905C61.5455 2.92056 61.3918 2.81939 61.2211 2.75237C61.0504 2.68535 60.8666 2.65404 60.6821 2.66054H60.5355L56.6176 2.94027L56.6706 1.74367V1.66597C56.6788 1.48286 56.6448 1.30026 56.5709 1.13108C56.497 0.961902 56.385 0.810278 56.2429 0.686934C55.95 0.447073 55.574 0.319678 55.1881 0.329509C54.7986 0.320098 54.419 0.447266 54.1211 0.686934C53.954 0.815534 53.8193 0.978306 53.7269 1.16323C53.6346 1.34815 53.587 1.5505 53.5876 1.75533L53.5184 3.18114L48.9448 3.52303C48.7311 3.53337 48.5221 3.58645 48.3312 3.67881C48.1404 3.77117 47.972 3.90075 47.8371 4.05917C47.5898 4.35424 47.4586 4.72264 47.4665 5.10036C47.4525 5.46484 47.5851 5.82064 47.8371 6.09494C47.9616 6.21683 48.1113 6.3126 48.2768 6.37615C48.4423 6.4397 48.6199 6.46963 48.7982 6.46402H48.9448L53.4003 6.1571L53.2659 9.75855C53.1885 12.0041 53.1274 13.8961 53.0948 15.4307L53.0663 16.2582V17.1013C53.0615 17.6624 53.0968 18.2232 53.1722 18.7797C53.2064 18.9731 53.2901 19.1554 53.4158 19.3106C53.5415 19.4658 53.7055 19.589 53.893 19.6693C54.1316 19.7902 54.3968 19.8554 54.6668 19.8597C54.8044 19.8608 54.9414 19.8438 55.0741 19.8092C55.2723 19.765 55.4577 19.6794 55.6168 19.5584C55.776 19.4375 55.905 19.2843 55.9945 19.1099C56.1243 18.87 56.1887 18.6028 56.1818 18.3329V16.2971L56.2104 15.2676C56.2348 13.8767 56.2918 11.9678 56.3814 9.54098L56.5158 5.91622L60.5681 5.6093C60.7806 5.59843 60.9886 5.5455 61.1786 5.45387C61.3686 5.36224 61.5365 5.23392 61.6717 5.07705Z" fill="white"/>
<path d="M68.974 17.4549C68.8383 13.6061 68.4419 8.63967 67.7848 2.55567C67.7481 2.18954 67.5781 1.84726 67.3043 1.58829C67.0548 1.34365 66.7342 1.17587 66.3839 1.10654C66.2911 1.09019 66.1971 1.0811 66.1029 1.07935C65.8592 1.077 65.6197 1.13884 65.4105 1.25806C65.2443 1.36048 65.1008 1.49314 64.9883 1.64846C64.8758 1.80377 64.7964 1.97871 64.7548 2.16328L61.7411 13.1697C60.7703 12.864 59.7817 12.6123 58.7803 12.4159C58.6584 12.3915 58.5343 12.3785 58.4097 12.3771C58.1075 12.3767 57.8128 12.4663 57.5667 12.6335C57.2468 12.8548 57.0167 13.1745 56.915 13.5387C56.8725 13.6869 56.8506 13.8397 56.8499 13.9933C56.8486 14.201 56.8989 14.406 56.9965 14.5916C57.0924 14.7677 57.2305 14.9196 57.3997 15.0351C57.5688 15.1505 57.7642 15.2262 57.9698 15.2559C58.9821 15.4718 59.9792 15.7482 60.9551 16.0834L60.4216 18.026C60.3902 18.1534 60.3725 18.2836 60.3686 18.4145C60.368 18.683 60.4517 18.9455 60.6089 19.1682C60.8256 19.4735 61.1537 19.691 61.5293 19.7781C61.686 19.8185 61.8476 19.8394 62.0099 19.8403C62.2313 19.8402 62.4499 19.7924 62.6493 19.7004C62.8407 19.6142 63.0082 19.4864 63.1384 19.3271C63.2685 19.1679 63.3577 18.9817 63.3986 18.7836L63.8059 17.2295C64.5612 17.5968 65.2612 18.0594 65.887 18.6048C65.9074 19.3819 65.9155 20.1589 65.9155 20.9048C65.9155 22.4161 65.8789 23.8691 65.8096 25.2716V25.3726C65.8009 25.5523 65.8327 25.7317 65.903 25.8986C65.9732 26.0655 66.0803 26.216 66.2169 26.34C66.504 26.5815 66.8769 26.7093 67.2595 26.6974C67.6527 26.7065 68.036 26.5795 68.3387 26.34C68.5055 26.2104 68.6407 26.0476 68.735 25.8631C68.8292 25.6787 68.8802 25.4768 68.8844 25.2716C68.9578 23.8445 68.9944 22.3423 68.9944 20.7649V20.256C69.3394 20.0805 69.6047 19.7901 69.7397 19.4401C69.7899 19.316 69.8174 19.1846 69.8212 19.0516C69.8129 18.784 69.7253 18.524 69.5687 18.3018C69.3862 18.0097 69.1878 17.727 68.974 17.4549ZM64.6367 14.3157L65.5164 11.0834C65.6141 12.3654 65.6997 13.6359 65.773 14.9024C65.4064 14.6809 65.0277 14.4867 64.6367 14.3157Z" fill="white"/>
<path d="M79.4487 3.43751C78.697 3.27116 77.9274 3.19031 77.1558 3.19663C76.31 3.2002 75.4662 3.27692 74.6349 3.42585C74.4 3.30801 74.1386 3.24666 73.8733 3.24714C73.7432 3.24719 73.6136 3.26021 73.4864 3.28599C73.2943 3.32268 73.1118 3.39552 72.9496 3.50025C72.7874 3.60498 72.6487 3.73949 72.5415 3.89594L72.3664 3.94645C72.0121 4.03969 71.7066 4.13293 71.446 4.22617C71.242 4.29439 71.0558 4.40356 70.8998 4.54632C70.7438 4.68907 70.6218 4.86209 70.5419 5.05369C70.4525 5.25527 70.4068 5.47199 70.4075 5.69084C70.4029 5.84759 70.4193 6.00426 70.4564 6.15705C70.4962 6.33158 70.5722 6.49675 70.6799 6.64286C70.7876 6.78898 70.9248 6.91308 71.0835 7.00788C71.2673 7.11918 71.4809 7.17721 71.6985 7.17493C71.8891 7.17167 72.0778 7.13752 72.2565 7.07392L72.3094 7.04673V17.785L72.0854 17.8122C71.9982 17.82 71.9121 17.8369 71.8288 17.8627C71.4257 17.8977 71.0434 18.0496 70.7333 18.2979C70.5857 18.429 70.469 18.5887 70.3911 18.7662C70.3131 18.9437 70.2757 19.135 70.2812 19.3274C70.2835 19.7221 70.4454 20.1007 70.7333 20.3841C70.8481 20.5147 70.9905 20.6206 71.1513 20.6949C71.312 20.7692 71.4874 20.8103 71.6659 20.8154C71.7201 20.8194 71.7746 20.8194 71.8288 20.8154C72.1017 20.7882 72.3949 20.7532 72.7085 20.6988C72.848 20.8367 73.0159 20.9455 73.2016 21.0184C73.3874 21.0913 73.587 21.1266 73.7878 21.1223C73.9244 21.1201 74.0606 21.1071 74.195 21.0834C74.4695 21.043 74.7247 20.9241 74.9269 20.7423C75.1291 20.5606 75.2686 20.3246 75.3272 20.0656C76.3058 19.7557 77.2587 19.3765 78.178 18.9311C79.9144 18.1072 81.3923 16.8609 82.4624 15.318C83.5196 13.77 84.1099 11.9743 84.1688 10.1276C84.1688 9.98512 84.1688 9.84138 84.1688 9.69634C84.1982 8.34748 83.8132 7.0199 83.0611 5.87732C82.2438 4.63926 80.9443 3.76163 79.4487 3.43751ZM80.4505 12.917C79.7097 14.2617 78.5786 15.3744 77.1925 16.1222C76.6234 16.4405 76.0298 16.7172 75.4168 16.9497V6.25806C75.5838 6.23475 75.8852 6.20367 76.3087 6.1687C76.6019 6.14539 76.8911 6.12985 77.1762 6.12985C77.4613 6.12985 77.7626 6.12985 78.0559 6.1687H78.1495H78.2188L78.626 6.24252C78.8889 6.3029 79.1473 6.37947 79.3998 6.47174L79.5872 6.57275L79.7989 6.67765C79.8463 6.70495 79.8952 6.7296 79.9455 6.75146L80.0148 6.79031C80.034 6.80993 80.0559 6.82692 80.0799 6.84082C80.1492 6.89909 80.2469 7.00011 80.3732 7.1322L80.4139 7.17105L80.4383 7.19824L80.4953 7.27206L80.6257 7.45077L80.7316 7.64114C80.8757 7.91511 80.9798 8.2066 81.0411 8.50751C81.1628 8.99506 81.2257 9.4943 81.2284 9.99548C81.2187 11.0098 80.9518 12.0069 80.4505 12.9015V12.917Z" fill="white"/>
<path d="M91.8417 4.1835C91.4499 4.0817 91.0463 4.02689 90.6403 4.02032H90.4122C89.8207 4.02204 89.2364 4.14423 88.6984 4.37873C88.1604 4.61323 87.6811 4.95464 87.2926 5.3801C86.4818 6.26032 85.8728 7.29251 85.5047 8.41044C85.179 9.37693 85.0168 10.3868 85.0242 11.4019C85.0387 12.6498 85.2235 13.8905 85.574 15.0927C85.8854 16.3917 86.5742 17.5806 87.5614 18.5232C88.0538 18.9703 88.635 19.3189 89.2708 19.5485C89.9066 19.778 90.5841 19.8838 91.2634 19.8597C93.335 19.536 94.7984 18.544 95.6537 16.8838C96.3676 15.4007 96.7225 13.7834 96.6922 12.1518V12.0119C96.7303 10.3808 96.3706 8.76351 95.6415 7.28766C95.2897 6.53345 94.7661 5.86351 94.1088 5.32655C93.4515 4.78959 92.677 4.39911 91.8417 4.1835ZM93.5074 13.7641C93.4141 14.4694 93.1834 15.152 92.8273 15.7765C92.7263 15.9538 92.5987 16.1161 92.4485 16.2583C92.3278 16.3797 92.1909 16.4855 92.0413 16.5729C91.9719 16.6114 91.8998 16.6451 91.8254 16.674L91.7073 16.74C91.6781 16.7486 91.6506 16.7617 91.6259 16.7789L91.239 16.8799H91.1616H91.1209C91.0394 16.8799 90.9498 16.8799 90.8521 16.8799H90.7177H90.5181L90.8806 16.9187H90.7869C90.6925 16.911 90.5987 16.898 90.5059 16.8799C90.4295 16.8763 90.3533 16.8685 90.2778 16.8566C90.005 16.7936 89.7642 16.6409 89.5977 16.4253C89.5011 16.3174 89.4127 16.2032 89.333 16.0834L89.1212 15.726C88.4777 14.6149 88.1574 13.1722 88.1601 11.3981V11.1844C88.1636 10.7933 88.2032 10.4033 88.2782 10.0189C88.3679 9.54155 88.5042 9.0733 88.6854 8.62023C89.1334 7.52465 89.728 6.98074 90.4733 6.98074H90.514C90.5586 6.97405 90.6039 6.97405 90.6484 6.98074C90.7013 6.9758 90.7545 6.9758 90.8073 6.98074H90.8602C91.0231 7.0157 91.2064 7.06621 91.4222 7.13226L91.687 7.26046C91.72 7.27863 91.7513 7.29942 91.7806 7.32262L91.8621 7.36147L91.9272 7.41198L92.0901 7.51299C92.4763 7.8504 92.789 8.25699 93.0106 8.70959C93.3878 9.49512 93.5982 10.3442 93.6296 11.2077C93.6296 11.4602 93.654 11.7166 93.654 11.9847C93.6512 12.5804 93.6022 13.1752 93.5074 13.7641Z" fill="white"/>
<path d="M121.938 19.7082C121.755 19.3814 121.45 19.1319 121.083 19.0089C120.951 18.9678 120.814 18.9455 120.676 18.9429C120.397 18.9487 120.125 19.0237 119.886 19.1604C117.622 20.5169 115.089 21.4136 112.445 21.7945C111.905 21.8623 111.361 21.8961 110.816 21.8955C108.731 21.9143 106.685 21.3585 104.923 20.2949C104.233 19.8682 103.589 19.3776 103.001 18.8302C102.736 18.5854 102.443 18.2941 102.121 17.9638L102.092 17.9405C102.787 17.8576 103.452 17.6226 104.035 17.2539C104.619 16.8853 105.105 16.393 105.456 15.8154C105.932 14.9823 106.166 14.0438 106.136 13.0958V12.8705C106.13 11.8526 105.839 10.8547 105.293 9.98003C104.87 9.31821 104.213 8.82225 103.44 8.58141C102.959 8.42467 102.454 8.34716 101.946 8.35219C101.651 8.3522 101.357 8.37298 101.066 8.41435C100.226 8.53944 99.4139 8.80232 98.6673 9.19136C98.2601 9.40504 97.9872 9.88679 97.8528 10.6444C97.8006 10.9555 97.7693 11.2696 97.7591 11.5846L97.7306 12.0158C97.726 12.1459 97.7138 12.2756 97.694 12.4043L96.9202 19.6538V19.7704C96.9241 19.9466 96.9663 20.12 97.0441 20.2799C97.122 20.4397 97.2337 20.5824 97.3722 20.6989C97.6652 20.9724 98.0579 21.127 98.4678 21.1301C98.8066 21.1447 99.1398 21.0441 99.4083 20.8464C99.6767 20.6486 99.8629 20.3665 99.9339 20.0501C100.987 21.1488 102.189 22.1079 103.51 22.9017C105.656 24.1939 108.148 24.8684 110.686 24.8443C111.313 24.8447 111.94 24.811 112.563 24.7432C115.711 24.3332 118.733 23.2954 121.433 21.6974C121.618 21.6007 121.778 21.4663 121.902 21.3038C122.026 21.1413 122.111 20.9546 122.15 20.7572C122.169 20.673 122.179 20.587 122.179 20.5008C122.173 20.221 122.09 19.9476 121.938 19.7082ZM101.449 15.0461C101.335 15.0461 101.205 15.0461 101.062 15.0461H100.569H100.492L100.862 11.4835C101.103 11.3335 101.39 11.2651 101.677 11.2893C102.513 11.2893 102.949 11.8332 102.984 12.921V13.1502C103.039 13.6995 102.866 14.2473 102.504 14.6771C102.35 14.7956 102.175 14.8865 101.986 14.9451C101.811 15 101.631 15.0403 101.449 15.0656V15.0461Z" fill="white"/>
<path d="M75.0624 29.3703H70.6762C70.66 29.3698 70.6439 29.3724 70.6288 29.3781C70.6137 29.3837 70.6 29.3923 70.5885 29.4032C70.5771 29.4142 70.5681 29.4272 70.5622 29.4416C70.5562 29.456 70.5535 29.4714 70.554 29.4869V30.159C70.554 30.1899 70.5669 30.2195 70.5898 30.2414C70.6127 30.2632 70.6438 30.2755 70.6762 30.2755H72.1871C72.2033 30.275 72.2195 30.2776 72.2346 30.2833C72.2496 30.289 72.2633 30.2975 72.2748 30.3085C72.2863 30.3194 72.2952 30.3325 72.3012 30.3468C72.3071 30.3612 72.3099 30.3766 72.3093 30.3921V34.553C72.3093 34.5839 72.3222 34.6135 72.3451 34.6354C72.368 34.6572 72.3991 34.6695 72.4315 34.6695H73.3071C73.3395 34.6695 73.3706 34.6572 73.3935 34.6354C73.4164 34.6135 73.4293 34.5839 73.4293 34.553V30.3921C73.4287 30.3766 73.4315 30.3612 73.4374 30.3468C73.4434 30.3325 73.4524 30.3194 73.4638 30.3085C73.4753 30.2975 73.489 30.289 73.504 30.2833C73.5191 30.2776 73.5353 30.275 73.5515 30.2755H75.0624C75.0948 30.2755 75.1259 30.2632 75.1488 30.2414C75.1717 30.2195 75.1846 30.1899 75.1846 30.159V29.4869C75.1852 29.4714 75.1824 29.456 75.1764 29.4416C75.1705 29.4272 75.1615 29.4142 75.1501 29.4032C75.1386 29.3923 75.1249 29.3837 75.1098 29.3781C75.0947 29.3724 75.0786 29.3698 75.0624 29.3703Z" fill="white"/>
<path d="M80.9189 33.7837H78.3613C78.3289 33.7837 78.2978 33.7715 78.2749 33.7496C78.252 33.7277 78.2391 33.6981 78.2391 33.6672V32.5017C78.2386 32.4862 78.2413 32.4708 78.2473 32.4564C78.2532 32.442 78.2622 32.429 78.2737 32.418C78.2851 32.4071 78.2988 32.3985 78.3139 32.3929C78.329 32.3872 78.3451 32.3846 78.3613 32.3851H80.5646C80.5967 32.3841 80.6272 32.3715 80.6499 32.3499C80.6726 32.3282 80.6858 32.2992 80.6868 32.2686V31.6508C80.6868 31.6355 80.6836 31.6204 80.6775 31.6062C80.6713 31.5921 80.6623 31.5792 80.651 31.5684C80.6397 31.5576 80.6262 31.549 80.6114 31.5432C80.5965 31.5373 80.5806 31.5343 80.5646 31.5343H78.3613C78.3289 31.5343 78.2978 31.522 78.2749 31.5001C78.252 31.4783 78.2391 31.4486 78.2391 31.4177V30.3843C78.2386 30.3689 78.2413 30.3535 78.2473 30.3391C78.2532 30.3247 78.2622 30.3116 78.2737 30.3007C78.2851 30.2898 78.2988 30.2812 78.3139 30.2755C78.329 30.2699 78.3451 30.2672 78.3613 30.2678H80.8701C80.8861 30.2678 80.902 30.2647 80.9168 30.2589C80.9316 30.253 80.9451 30.2444 80.9564 30.2336C80.9678 30.2228 80.9768 30.2099 80.9829 30.1958C80.9891 30.1817 80.9922 30.1665 80.9922 30.1512V29.4869C80.9928 29.4714 80.99 29.456 80.9841 29.4416C80.9781 29.4272 80.9692 29.4142 80.9577 29.4032C80.9462 29.3923 80.9325 29.3837 80.9175 29.3781C80.9024 29.3724 80.8862 29.3698 80.8701 29.3703H77.2454C77.2292 29.3698 77.2131 29.3724 77.198 29.3781C77.1829 29.3837 77.1692 29.3923 77.1578 29.4032C77.1463 29.4142 77.1373 29.4272 77.1314 29.4416C77.1254 29.456 77.1227 29.4714 77.1232 29.4869V34.5374C77.1227 34.5529 77.1254 34.5683 77.1314 34.5827C77.1373 34.5971 77.1463 34.6101 77.1578 34.6211C77.1692 34.632 77.1829 34.6406 77.198 34.6462C77.2131 34.6519 77.2292 34.6545 77.2454 34.654H80.9108C80.927 34.6545 80.9431 34.6519 80.9582 34.6462C80.9733 34.6406 80.987 34.632 80.9984 34.6211C81.0099 34.6101 81.0189 34.5971 81.0248 34.5827C81.0308 34.5683 81.0335 34.5529 81.033 34.5374V33.9003C81.0335 33.8855 81.031 33.8707 81.0255 33.8569C81.0201 33.843 81.0119 33.8303 81.0013 33.8195C80.9907 33.8086 80.9779 33.7999 80.9638 33.7938C80.9497 33.7877 80.9344 33.7842 80.9189 33.7837Z" fill="white"/>
<path d="M85.9811 32.0044C85.9692 31.9856 85.963 31.9641 85.963 31.9422C85.963 31.9203 85.9692 31.8988 85.9811 31.8801L87.4961 29.549C87.5079 29.5312 87.5144 29.5107 87.5149 29.4897C87.5154 29.4686 87.51 29.4478 87.4991 29.4295C87.4883 29.4112 87.4724 29.396 87.4532 29.3856C87.4341 29.3752 87.4123 29.3699 87.3902 29.3703H86.4332C86.4118 29.3707 86.3908 29.3762 86.3723 29.3864C86.3538 29.3966 86.3383 29.4111 86.3273 29.4286L85.2684 31.1497C85.2569 31.1665 85.2412 31.1804 85.2227 31.1899C85.2043 31.1995 85.1835 31.2045 85.1625 31.2045C85.1415 31.2045 85.1207 31.1995 85.1023 31.1899C85.0838 31.1804 85.0681 31.1665 85.0566 31.1497L83.9692 29.4247C83.9583 29.4074 83.9427 29.3933 83.9241 29.3837C83.9055 29.3741 83.8845 29.3695 83.8633 29.3703H82.8981C82.8764 29.3706 82.8551 29.3764 82.8365 29.3871C82.8179 29.3978 82.8027 29.413 82.7923 29.4312C82.7819 29.4494 82.7768 29.4699 82.7775 29.4906C82.7782 29.5114 82.7847 29.5315 82.7963 29.549L84.3561 31.9034C84.368 31.9222 84.3742 31.9436 84.3742 31.9655C84.3742 31.9875 84.368 32.0089 84.3561 32.0277L82.7515 34.4908C82.7397 34.5086 82.7332 34.5292 82.7327 34.5502C82.7322 34.5713 82.7376 34.592 82.7485 34.6104C82.7593 34.6287 82.7752 34.6439 82.7944 34.6543C82.8136 34.6647 82.8353 34.67 82.8574 34.6695H83.8145C83.8356 34.6704 83.8566 34.6657 83.8752 34.6562C83.8938 34.6466 83.9094 34.6324 83.9204 34.6152L85.0688 32.7775C85.079 32.7597 85.094 32.7448 85.1122 32.7344C85.1305 32.724 85.1514 32.7185 85.1727 32.7185C85.194 32.7185 85.2148 32.724 85.2331 32.7344C85.2514 32.7448 85.2664 32.7597 85.2765 32.7775L86.4169 34.6113C86.4269 34.6296 86.4422 34.6448 86.4609 34.6551C86.4797 34.6654 86.5011 34.6704 86.5227 34.6695H87.488C87.51 34.67 87.5318 34.6647 87.551 34.6543C87.5702 34.6439 87.586 34.6287 87.5969 34.6104C87.6077 34.592 87.6132 34.5713 87.6127 34.5502C87.6121 34.5292 87.6056 34.5086 87.5938 34.4908L85.9811 32.0044Z" fill="white"/>
<path d="M98.0974 29.3704H96.786C96.7603 29.3703 96.7352 29.3782 96.7146 29.3929C96.694 29.4076 96.6791 29.4284 96.672 29.4519L95.4298 33.0922C95.4218 33.1156 95.4062 33.1359 95.3854 33.1503C95.3646 33.1647 95.3395 33.1724 95.3138 33.1724C95.288 33.1724 95.2629 33.1647 95.2421 33.1503C95.2213 33.1359 95.2057 33.1156 95.1977 33.0922L93.9555 29.4675C93.9484 29.4439 93.9335 29.4232 93.9129 29.4084C93.8923 29.3937 93.8672 29.3858 93.8415 29.3859H92.5383C92.5221 29.3854 92.5059 29.388 92.4908 29.3937C92.4758 29.3993 92.4621 29.4079 92.4506 29.4188C92.4391 29.4298 92.4302 29.4428 92.4242 29.4572C92.4183 29.4716 92.4155 29.487 92.4161 29.5025V34.553C92.4155 34.5685 92.4183 34.5839 92.4242 34.5983C92.4302 34.6127 92.4391 34.6257 92.4506 34.6367C92.4621 34.6476 92.4758 34.6562 92.4908 34.6618C92.5059 34.6675 92.5221 34.6701 92.5383 34.6696H93.3528C93.369 34.6701 93.3851 34.6675 93.4002 34.6618C93.4153 34.6562 93.429 34.6476 93.4404 34.6367C93.4519 34.6257 93.4609 34.6127 93.4668 34.5983C93.4728 34.5839 93.4755 34.5685 93.475 34.553V31.309C93.4735 31.2802 93.4833 31.2519 93.5024 31.2296C93.5216 31.2073 93.5487 31.1925 93.5786 31.1881C93.6085 31.1838 93.639 31.1902 93.6642 31.206C93.6895 31.2219 93.7076 31.2461 93.7153 31.274L94.8922 34.5919C94.9008 34.6151 94.9169 34.6351 94.9381 34.649C94.9593 34.663 94.9846 34.6702 95.0103 34.6696H95.609C95.6348 34.6702 95.6601 34.663 95.6813 34.649C95.7025 34.6351 95.7185 34.6151 95.7271 34.5919L96.896 31.2507C96.9059 31.2258 96.9245 31.2048 96.9487 31.1914C96.9729 31.1779 97.0012 31.1728 97.0289 31.1769C97.0566 31.181 97.0819 31.1941 97.1007 31.2139C97.1195 31.2337 97.1306 31.259 97.1322 31.2857V34.553C97.1316 34.5685 97.1344 34.5839 97.1403 34.5983C97.1463 34.6127 97.1552 34.6257 97.1667 34.6367C97.1782 34.6476 97.1919 34.6562 97.2069 34.6618C97.222 34.6675 97.2382 34.6701 97.2544 34.6696H98.0892C98.1216 34.6696 98.1527 34.6573 98.1756 34.6354C98.1985 34.6136 98.2114 34.5839 98.2114 34.553V29.5025C98.2144 29.4864 98.2136 29.47 98.2093 29.4543C98.2049 29.4386 98.1971 29.4239 98.1863 29.4114C98.1754 29.3988 98.1619 29.3887 98.1465 29.3816C98.1312 29.3745 98.1144 29.3707 98.0974 29.3704Z" fill="white"/>
<path d="M104.491 33.7838H101.934C101.901 33.7838 101.87 33.7715 101.847 33.7497C101.824 33.7278 101.812 33.6981 101.812 33.6672V32.5017C101.811 32.4863 101.814 32.4709 101.82 32.4565C101.826 32.4421 101.835 32.429 101.846 32.4181C101.858 32.4072 101.871 32.3986 101.886 32.3929C101.901 32.3873 101.918 32.3846 101.934 32.3852H104.133C104.165 32.3852 104.196 32.3729 104.219 32.351C104.242 32.3292 104.255 32.2995 104.255 32.2686V31.6509C104.256 31.6354 104.253 31.62 104.247 31.6057C104.241 31.5913 104.232 31.5782 104.221 31.5673C104.209 31.5563 104.196 31.5478 104.18 31.5421C104.165 31.5364 104.149 31.5338 104.133 31.5343H101.934C101.901 31.5343 101.87 31.5221 101.847 31.5002C101.824 31.4783 101.812 31.4487 101.812 31.4178V30.3844C101.811 30.3689 101.814 30.3535 101.82 30.3391C101.826 30.3247 101.835 30.3117 101.846 30.3007C101.858 30.2898 101.871 30.2812 101.886 30.2756C101.901 30.2699 101.918 30.2673 101.934 30.2678H104.443C104.475 30.2668 104.505 30.2542 104.528 30.2326C104.55 30.2109 104.564 30.1819 104.565 30.1513V29.4869C104.565 29.456 104.552 29.4264 104.529 29.4045C104.506 29.3826 104.475 29.3704 104.443 29.3704H100.814C100.781 29.3704 100.75 29.3826 100.727 29.4045C100.705 29.4264 100.692 29.456 100.692 29.4869V34.5375C100.692 34.5684 100.705 34.598 100.727 34.6199C100.75 34.6418 100.781 34.654 100.814 34.654H104.479C104.512 34.654 104.543 34.6418 104.566 34.6199C104.588 34.598 104.601 34.5684 104.601 34.5375V33.9003C104.602 33.8713 104.59 33.8433 104.57 33.8218C104.55 33.8002 104.522 33.7867 104.491 33.7838Z" fill="white"/>
<path d="M111.182 34.4909L109.553 32.0044C109.542 31.9857 109.535 31.9642 109.535 31.9423C109.535 31.9204 109.542 31.8989 109.553 31.8801L111.064 29.5491C111.076 29.5315 111.082 29.5114 111.083 29.4907C111.084 29.47 111.079 29.4495 111.068 29.4312C111.058 29.413 111.043 29.3978 111.024 29.3871C111.005 29.3764 110.984 29.3706 110.962 29.3704H110.005C109.984 29.3703 109.963 29.3757 109.944 29.386C109.926 29.3962 109.91 29.4109 109.9 29.4286L108.841 31.1497C108.829 31.1666 108.814 31.1804 108.795 31.19C108.777 31.1996 108.756 31.2046 108.735 31.2046C108.714 31.2046 108.693 31.1996 108.675 31.19C108.656 31.1804 108.64 31.1666 108.629 31.1497L107.541 29.4248C107.53 29.408 107.514 29.3943 107.496 29.3848C107.477 29.3753 107.457 29.3703 107.436 29.3704H106.47C106.449 29.3706 106.427 29.3764 106.409 29.3871C106.39 29.3978 106.375 29.413 106.365 29.4312C106.354 29.4495 106.349 29.47 106.35 29.4907C106.351 29.5114 106.357 29.5315 106.369 29.5491L107.924 31.9034C107.936 31.9222 107.942 31.9437 107.942 31.9656C107.942 31.9875 107.936 32.009 107.924 32.0277L106.324 34.4909C106.312 34.5087 106.306 34.5292 106.305 34.5502C106.304 34.5713 106.31 34.5921 106.321 34.6104C106.332 34.6287 106.347 34.6439 106.367 34.6543C106.386 34.6648 106.408 34.67 106.43 34.6696H107.387C107.408 34.6696 107.428 34.6647 107.447 34.6552C107.465 34.6457 107.481 34.6319 107.493 34.6152L108.637 32.7776C108.648 32.7598 108.663 32.7451 108.682 32.7348C108.7 32.7246 108.721 32.7192 108.743 32.7192C108.764 32.7192 108.785 32.7246 108.804 32.7348C108.823 32.7451 108.838 32.7598 108.849 32.7776L109.989 34.6113C109.998 34.6293 110.013 34.6444 110.031 34.6547C110.049 34.665 110.07 34.6702 110.091 34.6696H111.06C111.084 34.6733 111.108 34.6704 111.129 34.6613C111.151 34.6521 111.169 34.6372 111.182 34.6182C111.195 34.5993 111.202 34.5772 111.202 34.5546C111.202 34.5319 111.195 34.5098 111.182 34.4909Z" fill="white"/>
<path d="M89.8504 32.5367C90.1495 32.5367 90.392 32.3053 90.392 32.0199C90.392 31.7346 90.1495 31.5032 89.8504 31.5032C89.5512 31.5032 89.3087 31.7346 89.3087 32.0199C89.3087 32.3053 89.5512 32.5367 89.8504 32.5367Z" fill="white"/>
</svg>
