<svg width="140" height="55" viewBox="0 0 140 55" fill="none" xmlns="http://www.w3.org/2000/svg">
<g clip-path="url(#clip0)">
<path d="M21.8888 22.2793C22.8601 21.5896 23.6772 20.7287 24.3431 19.7375V19.7365C23.4543 20.1256 22.5088 20.3844 21.5216 20.5098C22.5367 19.9037 23.312 18.9512 23.6762 17.8037C22.7298 18.368 21.6848 18.7661 20.5711 18.989C19.6724 18.0316 18.3915 17.4395 16.9942 17.4395C14.2832 17.4395 12.1006 19.6399 12.1006 22.337C12.1006 22.7252 12.1335 23.0984 12.2141 23.4537C8.14356 23.2546 4.5408 21.304 2.12038 18.3312C1.6984 19.0647 1.44959 19.9037 1.44959 20.8063C1.44959 22.5022 2.32241 24.005 3.62518 24.8759C2.83795 24.8609 2.06664 24.632 1.41277 24.2728V24.3265C1.41277 26.7061 3.10965 28.6827 5.33599 29.1385C4.9369 29.248 4.50298 29.2997 4.05214 29.2997C3.73864 29.2997 3.42215 29.2818 3.12557 29.2161C3.75954 31.1548 5.56092 32.581 7.70068 32.6278C6.03465 33.9305 3.91877 34.7158 1.62873 34.7158C1.22765 34.7158 0.842494 34.6979 0.457336 34.6491C2.62696 36.0474 5.19666 36.8466 7.96939 36.8466C16.611 36.8466 22.2431 29.6371 21.8888 22.2793Z" fill="white"/>
</g>
<path d="M53.4796 19.3368V21.8038H50.4671V37.1143H47.4669V21.8038H44.442V19.3368H53.4796ZM70.8063 19.3368H73.98L71.6369 37.1143H67.3723L66.1822 24.1097L64.992 37.1143H60.7026L58.3844 19.3368H61.558L62.7854 34.6472H63.0085L64.3846 19.2624H67.9922L69.3558 34.6472H69.5914L70.8063 19.3368ZM82.9882 37.1143H80.0129V19.3368H82.9882V37.1143ZM97.9347 19.3368V21.8038H94.9222V37.1143H91.9221V21.8038H88.8972V19.3368H97.9347ZM111.753 19.3368V21.8038H108.741V37.1143H105.74V21.8038H102.716V19.3368H111.753ZM124.096 21.779H120.65V27.0106H123.848V29.4528H120.65V34.672H124.096V37.1143H117.674V19.3368H124.096V21.779ZM137.791 32.8248L138.348 37.1143H135.361L134.877 32.8248C134.811 32.2463 134.716 31.8661 134.592 31.6843C134.476 31.4942 134.299 31.3992 134.059 31.3992H133.328V37.1143H130.451V19.3368H134.059C135.448 19.3368 136.472 19.7252 137.134 20.5021C137.795 21.2707 138.125 22.4567 138.125 24.0601V26.2792C138.125 28.1222 137.576 29.4074 136.476 30.1347C137.187 30.6058 137.625 31.5025 137.791 32.8248ZM133.328 28.9693H134.059C134.464 28.9693 134.745 28.7627 134.902 28.3495C135.067 27.928 135.15 27.2379 135.15 26.2792V24.0601C135.15 23.1592 135.071 22.56 134.914 22.2625C134.766 21.9567 134.481 21.8038 134.059 21.8038H133.328V28.9693Z" fill="white"/>
<defs>
<clipPath id="clip0">
<rect width="23.8857" height="23.8857" fill="white" transform="translate(0.457153 15.2002)"/>
</clipPath>
</defs>
</svg>
